<?xml version="1.0" encoding="UTF-8" standalone="no"?>
<svg
   xmlns:dc="http://purl.org/dc/elements/1.1/"
   xmlns:cc="http://creativecommons.org/ns#"
   xmlns:rdf="http://www.w3.org/1999/02/22-rdf-syntax-ns#"
   xmlns:svg="http://www.w3.org/2000/svg"
   xmlns="http://www.w3.org/2000/svg"
   id="svg2"
   height="750.01367"
   width="50.000122"
   version="1.1">
  <defs
     id="defs4" />
  <metadata
     id="metadata7">
    <rdf:RDF>
      <cc:Work
         rdf:about="">
        <dc:format>image/svg+xml</dc:format>
        <dc:type
           rdf:resource="http://purl.org/dc/dcmitype/StillImage" />
        <dc:title></dc:title>
      </cc:Work>
    </rdf:RDF>
  </metadata>
  <g
     transform="translate(2.8800179,-2.95e-6)"
     id="g4079">
    <path
       d="m 47.120104,25.000003 a 25,25 0 0 1 -50.0000001,0 25,25 0 1 1 50.0000001,0 z"
       id="path3010"
       style="color:#000000;display:inline;overflow:visible;visibility:visible;fill:#e0ecec;fill-opacity:1;fill-rule:nonzero;stroke:none;stroke-width:1;marker:none;enable-background:accumulate" />
    <path
       style="color:#000000;display:inline;overflow:visible;visibility:visible;fill:#434e52;fill-opacity:1;fill-rule:nonzero;stroke:none;stroke-width:1;marker:none;enable-background:accumulate"
       d="m 22.053528,9.819234 -16.9546877,16.954688 6.5244487,0.0222 v 13.381777 h 6.213758 V 30.124923 h 8.566113 v 10.052976 h 6.21376 v -13.3152 l 6.524448,0.02219 L 22.053528,9.81924 Z"
       id="rect3028" />
  </g>
  <g
     transform="translate(2.8800179,-2.95e-6)"
     id="g4083">
    <path
       d="m -2.8800178,125.0002 a 25,25 0 0 0 49.9999998,0 25,25 0 1 0 -49.9999998,0 z"
       id="path3789"
       style="color:#000000;display:inline;overflow:visible;visibility:visible;fill:#e0ecec;fill-opacity:1;fill-rule:nonzero;stroke:none;stroke-width:1;marker:none;enable-background:accumulate" />
    <path
       style="color:#000000;display:inline;overflow:visible;visibility:visible;fill:#434e52;fill-opacity:1;fill-rule:nonzero;stroke:none;stroke-width:1;marker:none;enable-background:accumulate"
       d="m 12.885388,111.51462 c -1.316219,0 -2.388681,0.96529 -2.388681,2.16705 v 22.63091 c 0,1.20176 1.072462,2.16705 2.388681,2.16705 h 18.493813 c 1.31622,0 2.364057,-0.52628 2.364057,-1.72803 0,-0.4995 -0.551014,-0.86883 -1.116165,-0.8577 H 15.298696 c -0.801171,0 -1.428285,-0.61522 -1.428285,-1.3544 v -0.32014 c 0,-0.73917 0.627114,-1.32978 1.428285,-1.32978 h 17.547906 c 0.541196,0 0.896656,-0.36698 0.896656,-0.94382 v -18.26417 c 0,-1.20176 -1.047837,-2.16705 -2.364057,-2.16705 h -7.560054 v 11.2539 l -3.570709,-3.54609 -3.546085,3.54609 v -11.2539 h -3.816965 z"
       id="rect3832" />
  </g>
  <g
     transform="translate(2.8800179,-2.95e-6)"
     id="g4087">
    <path
       style="color:#000000;display:inline;overflow:visible;visibility:visible;fill:#e0ecec;fill-opacity:1;fill-rule:nonzero;stroke:none;stroke-width:1.3749299;marker:none;enable-background:accumulate"
       id="path3803"
       d="m -2.8799106,225.0004 a 25,25 0 1 0 49.9999996,0 25,25 0 1 0 -49.9999996,0 z" />
    <path
       style="color:#000000;display:inline;overflow:visible;visibility:visible;fill:#434e52;fill-opacity:1;fill-rule:nonzero;stroke:none;stroke-width:1;marker:none;enable-background:accumulate"
       d="m 13.787998,210.03717 c -0.288854,0.0215 -0.56693,0.0738 -0.855305,0.13365 l 3.982512,4.00924 c 0.610123,0.61049 0.643095,1.54827 0.08014,2.11153 l -3.608316,3.58159 c -0.562901,0.56326 -1.474682,0.55707 -2.084805,-0.0535 l -4.0092402,-4.00924 c -0.4780809,2.30846 0.21416,4.8103 2.00462,6.60188 2.1047342,2.10605 5.1532792,2.61302 7.7511982,1.57697 0.128304,0.24733 0.320191,0.4537 0.534565,0.66821 l 1.015674,1.0424 1.122587,-1.12259 -1.336413,-1.33641 c -0.336648,-0.33665 -0.25057,-0.9522 0.187098,-1.38987 l 2.833196,-2.8332 c 0.599107,-2.3753 -0.0077,-4.97824 -1.870979,-6.84243 -1.342845,-1.34369 -3.103198,-2.06601 -4.864544,-2.13827 -0.293558,-0.0121 -0.593179,-0.0215 -0.882033,0 z m 18.576145,0 -12.80284,12.80284 1.737338,1.73734 -11.6000682,11.57334 -0.561293,0.24055 c -0.420331,0.18299 -0.905144,0.73122 -1.122588,1.2295 l -0.775119,1.71061 c -0.2174193,0.4983 -0.0461,0.77103 0.374195,0.58803 l 2.00462,-0.88204 c 0.4203402,-0.183 0.9318892,-0.7312 1.1493162,-1.2295 l 0.213826,-0.42765 11.546611,-11.57334 1.737337,1.73734 12.829568,-12.80284 z m -4.78436,16.19733 -2.298631,2.29863 c -0.437668,0.43767 -1.079941,0.52376 -1.416598,0.1871 l -1.363141,-1.36314 -1.122588,1.12259 10.691307,10.6913 c 0.918263,0.91885 2.250563,1.06421 2.993566,0.32074 l 1.550239,-1.55024 c 0.742986,-0.74346 0.597516,-2.07472 -0.320739,-2.99356 z"
       id="path3867" />
  </g>
  <g
     transform="translate(2.8800179,-2.95e-6)"
     id="g4092">
    <path
       style="color:#000000;display:inline;overflow:visible;visibility:visible;fill:#e0ecec;fill-opacity:1;fill-rule:nonzero;stroke:none;stroke-width:1.3749299;marker:none;enable-background:accumulate"
       id="path3836"
       d="m -2.8799106,325.0006 a 25,25 0 1 0 49.9999996,0 25,25 0 1 0 -49.9999996,0 z" />
    <path
       style="color:#000000;display:inline;overflow:visible;visibility:visible;fill:#434e52;fill-opacity:1;fill-rule:nonzero;stroke:none;stroke-width:1;marker:none;enable-background:accumulate"
       d="m 8.7779328,331.05766 -1.9598492,8.53936 c -0.117938,0.51506 0.211817,0.81974 0.7349462,0.69995 l 8.4868612,-1.94236 z m 0.822443,-0.82243 7.2794522,7.27945 15.941291,-15.9413 -7.279452,-7.27945 z m 17.0787052,-17.07872 7.279451,7.27946 3.219762,-3.21976 c 0.339368,-0.33937 0.361462,-0.86343 0.035,-1.18991 l -6.107036,-6.10704 c -0.326469,-0.32648 -0.868041,-0.32187 -1.20741,0.0175 l -3.219762,3.21976 z"
       id="rect3954" />
  </g>
  <g
     transform="translate(-97.120042,400.01304)"
     id="g4111">
    <path
       style="color:#000000;display:inline;overflow:visible;visibility:visible;fill:#434e52;fill-opacity:1;fill-rule:nonzero;stroke:none;stroke-width:1;marker:none;enable-background:accumulate"
       id="path3973"
       d="m 147.1201,25.000003 a 25,25 0 0 1 -49.999994,0 25,25 0 1 1 49.999994,0 z" />
    <path
       id="path3985"
       d="m 122.05353,9.819234 -16.95469,16.954688 6.52445,0.0222 v 13.381777 h 6.21376 V 30.124923 h 8.56611 v 10.052976 h 6.21376 v -13.3152 l 6.52445,0.02219 L 122.05353,9.81924 Z"
       style="color:#000000;display:inline;overflow:visible;visibility:visible;fill:#e0ecec;fill-opacity:1;fill-rule:nonzero;stroke:none;stroke-width:1;marker:none;enable-background:accumulate" />
  </g>
  <g
     transform="translate(-97.120042,400.01304)"
     id="g4107">
    <path
       style="color:#000000;display:inline;overflow:visible;visibility:visible;fill:#434e52;fill-opacity:1;fill-rule:nonzero;stroke:none;stroke-width:1;marker:none;enable-background:accumulate"
       id="path3975"
       d="m 97.120104,125.0002 a 25,25 0 0 0 49.999996,0 25,25 0 1 0 -49.999996,0 z" />
    <path
       id="path3987"
       d="m 112.88551,111.51462 c -1.31622,0 -2.38868,0.96529 -2.38868,2.16705 v 22.63091 c 0,1.20176 1.07246,2.16705 2.38868,2.16705 h 18.49381 c 1.31622,0 2.36406,-0.52628 2.36406,-1.72803 0,-0.4995 -0.55102,-0.86883 -1.11617,-0.8577 h -17.32839 c -0.80117,0 -1.42829,-0.61522 -1.42829,-1.3544 v -0.32014 c 0,-0.73917 0.62712,-1.32978 1.42829,-1.32978 h 17.5479 c 0.5412,0 0.89666,-0.36698 0.89666,-0.94382 v -18.26417 c 0,-1.20176 -1.04784,-2.16705 -2.36406,-2.16705 h -7.56005 v 11.2539 l -3.57071,-3.54609 -3.54609,3.54609 v -11.2539 h -3.81696 z"
       style="color:#000000;display:inline;overflow:visible;visibility:visible;fill:#e0ecec;fill-opacity:1;fill-rule:nonzero;stroke:none;stroke-width:1;marker:none;enable-background:accumulate" />
  </g>
  <g
     transform="translate(-97.120042,400.01304)"
     id="g4102">
    <path
       d="m 97.120089,225.0004 a 25.000001,25.000001 0 1 0 50.000001,0 25,25 0 1 0 -50.000001,0 z"
       id="path3979"
       style="color:#000000;display:inline;overflow:visible;visibility:visible;fill:#434e52;fill-opacity:1;fill-rule:nonzero;stroke:none;stroke-width:1;marker:none;enable-background:accumulate" />
    <path
       id="path3989"
       d="m 113.78805,210.03717 c -0.28886,0.0215 -0.56693,0.0738 -0.85531,0.13365 l 3.98252,4.00924 c 0.61012,0.61049 0.64309,1.54827 0.0801,2.11153 l -3.60832,3.58159 c -0.5629,0.56326 -1.47468,0.55707 -2.08481,-0.0535 l -4.00924,-4.00924 c -0.47808,2.30846 0.21416,4.8103 2.00462,6.60188 2.10474,2.10605 5.15328,2.61302 7.7512,1.57697 0.12831,0.24733 0.32019,0.4537 0.53457,0.66821 l 1.01567,1.0424 1.12259,-1.12259 -1.33641,-1.33641 c -0.33665,-0.33665 -0.25057,-0.9522 0.18709,-1.38987 l 2.8332,-2.8332 c 0.59911,-2.3753 -0.008,-4.97824 -1.87098,-6.84243 -1.34284,-1.34369 -3.1032,-2.06601 -4.86454,-2.13827 -0.29356,-0.0121 -0.59318,-0.0215 -0.88204,0 z m 18.57614,0 -12.80284,12.80284 1.73734,1.73734 -11.60007,11.57334 -0.56129,0.24055 c -0.42033,0.18299 -0.90514,0.73122 -1.12259,1.2295 l -0.77512,1.71061 c -0.21742,0.4983 -0.0461,0.77103 0.3742,0.58803 l 2.00462,-0.88204 c 0.42034,-0.183 0.93189,-0.7312 1.14931,-1.2295 l 0.21383,-0.42765 11.54661,-11.57334 1.73734,1.73734 12.82957,-12.80284 z m -4.78436,16.19733 -2.29863,2.29863 c -0.43767,0.43767 -1.07994,0.52376 -1.4166,0.1871 l -1.36314,-1.36314 -1.12258,1.12259 10.6913,10.6913 c 0.91827,0.91885 2.25057,1.06421 2.99357,0.32074 l 1.55024,-1.55024 c 0.74298,-0.74346 0.59751,-2.07472 -0.32074,-2.99356 z"
       style="color:#000000;display:inline;overflow:visible;visibility:visible;fill:#e0ecec;fill-opacity:1;fill-rule:nonzero;stroke:none;stroke-width:1;marker:none;enable-background:accumulate" />
  </g>
  <g
     transform="translate(-97.120042,400.01304)"
     id="g4097">
    <path
       d="m 97.120089,325.0006 a 25.000001,25.000001 0 1 0 50.000001,0 25,25 0 1 0 -50.000001,0 z"
       id="path3983"
       style="color:#000000;display:inline;overflow:visible;visibility:visible;fill:#434e52;fill-opacity:1;fill-rule:nonzero;stroke:none;stroke-width:1;marker:none;enable-background:accumulate" />
    <path
       id="path3991"
       d="m 108.77798,331.05766 -1.95985,8.53936 c -0.11793,0.51506 0.21182,0.81974 0.73495,0.69995 l 8.48686,-1.94236 z m 0.82245,-0.82243 7.27945,7.27945 15.94129,-15.9413 -7.27945,-7.27945 z m 17.0787,-17.07872 7.27945,7.27946 3.21976,-3.21976 c 0.33937,-0.33937 0.36147,-0.86343 0.035,-1.18991 l -6.10703,-6.10704 c -0.32647,-0.32648 -0.86804,-0.32187 -1.20741,0.0175 l -3.21976,3.21976 z"
       style="color:#000000;display:inline;overflow:visible;visibility:visible;fill:#e0ecec;fill-opacity:1;fill-rule:nonzero;stroke:none;stroke-width:1;marker:none;enable-background:accumulate" />
  </g>
</svg>
