<?xml version="1.0" encoding="UTF-8" standalone="no"?>
<svg
   xmlns:dc="http://purl.org/dc/elements/1.1/"
   xmlns:cc="http://creativecommons.org/ns#"
   xmlns:rdf="http://www.w3.org/1999/02/22-rdf-syntax-ns#"
   xmlns:svg="http://www.w3.org/2000/svg"
   xmlns="http://www.w3.org/2000/svg"
   xml:space="preserve"
   style="enable-background:new -311.5 336.5 50 120;"
   height="120"
   width="50"
   y="0px"
   x="0px"
   id="svg2"
   version="1.1"><metadata
     id="metadata25"><rdf:RDF><cc:Work
         rdf:about=""><dc:format>image/svg+xml</dc:format><dc:type
           rdf:resource="http://purl.org/dc/dcmitype/StillImage" /><dc:title></dc:title></cc:Work></rdf:RDF></metadata><defs
     id="defs23" /><style
     id="style3"
     type="text/css">
	.st0{fill:#E0ECEC;}
	.st1{fill:#434E52;}
</style><g
     transform="translate(311.5,-336.5)"
     id="g5"><path
       style="fill:#e0ecec"
       d="m -311.5,361.5 c 0,13.8 11.2,25 25,25 13.8,0 25,-11.2 25,-25 0,-13.8 -11.2,-25 -25,-25 -13.8,0 -25,11.2 -25,25 0,0 0,0 0,0 z"
       class="st0"
       id="path3789" /><g
       id="mobile"><g
         id="g542"><path
           style="fill:#434e52"
           d="m -272.8,351.9 c 0,1.1 -0.9,2.1 -2.1,2.1 l -22.6,0 c -1.1,0 -2.1,-0.9 -2.1,-2.1 l 0,-3.3 c 0,-1.1 0.9,-2.1 2.1,-2.1 l 22.6,0 c 1.1,0 2.1,0.9 2.1,2.1 0,-0.1 0,3.3 0,3.3 z"
           class="st1"
           id="path544" /><path
           style="fill:#434e52"
           d="m -272.8,374.5 c 0,1.1 -0.9,2.1 -2.1,2.1 l -22.6,0 c -1.1,0 -2.1,-0.9 -2.1,-2.1 l 0,-3.3 c 0,-1.1 0.9,-2.1 2.1,-2.1 l 22.6,0 c 1.1,0 2.1,0.9 2.1,2.1 0,-0.1 0,3.3 0,3.3 z"
           class="st1"
           id="path546" /><path
           style="fill:#434e52"
           d="m -272.8,363.2 c 0,1.1 -0.9,2.1 -2.1,2.1 l -22.6,0 c -1.1,0 -2.1,-0.9 -2.1,-2.1 l 0,-3.3 c 0,-1.1 0.9,-2.1 2.1,-2.1 l 22.6,0 c 1.1,0 2.1,0.9 2.1,2.1 0,-0.1 0,3.3 0,3.3 z"
           class="st1"
           id="path548" /></g></g></g><g
     transform="translate(311.5,-336.5)"
     id="g13"><path
       style="fill:#434e52"
       d="m -311.5,431.5 c 0,13.8 11.2,25 25,25 13.8,0 25,-11.2 25,-25 0,-13.8 -11.2,-25 -25,-25 -13.8,0 -25,11.2 -25,25 0,0 0,0 0,0 z"
       class="st1"
       id="path3789_1_" /><g
       id="mobile_1_"><g
         id="g542_1_"><path
           style="fill:#e0ecec"
           d="m -272.8,421.9 c 0,1.1 -0.9,2.1 -2.1,2.1 l -22.6,0 c -1.1,0 -2.1,-0.9 -2.1,-2.1 l 0,-3.3 c 0,-1.1 0.9,-2.1 2.1,-2.1 l 22.6,0 c 1.1,0 2.1,0.9 2.1,2.1 0,-0.1 0,3.3 0,3.3 z"
           class="st0"
           id="path544_1_" /><path
           style="fill:#e0ecec"
           d="m -272.8,444.5 c 0,1.1 -0.9,2.1 -2.1,2.1 l -22.6,0 c -1.1,0 -2.1,-0.9 -2.1,-2.1 l 0,-3.3 c 0,-1.1 0.9,-2.1 2.1,-2.1 l 22.6,0 c 1.1,0 2.1,0.9 2.1,2.1 0,-0.1 0,3.3 0,3.3 z"
           class="st0"
           id="path546_1_" /><path
           style="fill:#e0ecec"
           d="m -272.8,433.2 c 0,1.1 -0.9,2.1 -2.1,2.1 l -22.6,0 c -1.1,0 -2.1,-0.9 -2.1,-2.1 l 0,-3.3 c 0,-1.1 0.9,-2.1 2.1,-2.1 l 22.6,0 c 1.1,0 2.1,0.9 2.1,2.1 0,-0.1 0,3.3 0,3.3 z"
           class="st0"
           id="path548_1_" /></g></g></g></svg>