<?xml version="1.0" encoding="UTF-8" standalone="no"?>
<!-- Generator: Adobe Illustrator 16.0.0, SVG Export Plug-In . SVG Version: 6.00 Build 0)  -->

<svg
   xmlns:dc="http://purl.org/dc/elements/1.1/"
   xmlns:cc="http://creativecommons.org/ns#"
   xmlns:rdf="http://www.w3.org/1999/02/22-rdf-syntax-ns#"
   xmlns:svg="http://www.w3.org/2000/svg"
   xmlns="http://www.w3.org/2000/svg"
   xmlns:sodipodi="http://sodipodi.sourceforge.net/DTD/sodipodi-0.dtd"
   xmlns:inkscape="http://www.inkscape.org/namespaces/inkscape"
   version="1.1"
   x="0px"
   y="0px"
   width="19px"
   height="19px"
   viewBox="0 0 19 19"
   enable-background="new 0 0 19 19"
   xml:space="preserve"
   id="svg2"
   inkscape:version="0.92.5 (2060ec1f9f, 2020-04-08)"
   sodipodi:docname="mnuMobile.svg"><metadata
   id="metadata554"><rdf:RDF><cc:Work
       rdf:about=""><dc:format>image/svg+xml</dc:format><dc:type
         rdf:resource="http://purl.org/dc/dcmitype/StillImage" /><dc:title></dc:title></cc:Work></rdf:RDF></metadata><defs
   id="defs552">
	

		
		
		
	</defs><sodipodi:namedview
   pagecolor="#ffffff"
   bordercolor="#666666"
   borderopacity="1"
   objecttolerance="10"
   gridtolerance="10"
   guidetolerance="10"
   inkscape:pageopacity="0"
   inkscape:pageshadow="2"
   inkscape:window-width="1872"
   inkscape:window-height="1025"
   id="namedview550"
   showgrid="false"
   inkscape:zoom="4.3915053"
   inkscape:cx="64.571192"
   inkscape:cy="-23.023123"
   inkscape:window-x="48"
   inkscape:window-y="27"
   inkscape:window-maximized="1"
   inkscape:current-layer="svg2" />





<g
   id="g829"><path
     style="fill:#e0ecec;fill-opacity:1"
     inkscape:connector-curvature="0"
     id="path544"
     d="m 17.721,3.559 c 0,0.695 -0.569,1.265 -1.265,1.265 H 2.543 C 1.848,4.824 1.279,4.255 1.279,3.559 V 1.504 c 0,-0.696 0.569,-1.266 1.264,-1.266 h 13.913 c 0.696,0 1.265,0.569 1.265,1.266 z" /><path
     style="fill:#e0ecec;fill-opacity:1"
     inkscape:connector-curvature="0"
     id="path546"
     d="m 17.721,17.471 c 0,0.696 -0.569,1.266 -1.265,1.266 H 2.543 c -0.695,0 -1.264,-0.569 -1.264,-1.266 v -2.055 c 0,-0.696 0.569,-1.264 1.264,-1.264 h 13.913 c 0.696,0 1.265,0.567 1.265,1.264 z" /><path
     style="fill:#e0ecec;fill-opacity:1"
     inkscape:connector-curvature="0"
     id="path548"
     d="m 17.721,10.515 c 0,0.696 -0.569,1.266 -1.265,1.266 H 2.543 c -0.695,0 -1.264,-0.569 -1.264,-1.266 V 8.46 c 0,-0.695 0.569,-1.265 1.264,-1.265 h 13.913 c 0.696,0 1.265,0.569 1.265,1.265 z" /></g>
</svg>