<?xml version="1.0" encoding="UTF-8" standalone="no"?>
<svg
   xmlns:dc="http://purl.org/dc/elements/1.1/"
   xmlns:cc="http://creativecommons.org/ns#"
   xmlns:rdf="http://www.w3.org/1999/02/22-rdf-syntax-ns#"
   xmlns:svg="http://www.w3.org/2000/svg"
   xmlns="http://www.w3.org/2000/svg"
   xmlns:sodipodi="http://sodipodi.sourceforge.net/DTD/sodipodi-0.dtd"
   xmlns:inkscape="http://www.inkscape.org/namespaces/inkscape"
   id="svg2"
   xml:space="preserve"
   enable-background="new 0 0 35 420"
   viewBox="0 0 40 480"
   height="480"
   width="40"
   y="0px"
   x="0px"
   version="1.1"
   sodipodi:docname="blocks.svg"
   inkscape:version="0.92.4 (5da689c313, 2019-01-14)"><sodipodi:namedview
     pagecolor="#ffffff"
     bordercolor="#666666"
     borderopacity="1"
     objecttolerance="10"
     gridtolerance="10"
     guidetolerance="10"
     inkscape:pageopacity="0"
     inkscape:pageshadow="2"
     inkscape:window-width="1920"
     inkscape:window-height="1009"
     id="namedview18"
     showgrid="false"
     inkscape:zoom="0.98333333"
     inkscape:cx="51.280945"
     inkscape:cy="234.81517"
     inkscape:window-x="3832"
     inkscape:window-y="515"
     inkscape:window-maximized="1"
     inkscape:current-layer="svg2" /><metadata
     id="metadata545"><rdf:RDF><cc:Work
         rdf:about=""><dc:format>image/svg+xml</dc:format><dc:type
           rdf:resource="http://purl.org/dc/dcmitype/StillImage" /><dc:title></dc:title></cc:Work></rdf:RDF></metadata><defs
     id="defs543" /><path
     inkscape:connector-curvature="0"
     id="polygon383"
     d="M 19.292969,3.2890625 2.5292969,33.822266 37.371094,34.060547 Z m -1.351563,7.5527345 h 2.990235 c 0.529,0 0.958984,0.487234 0.958984,1.115234 L 20.875,24.451172 c 0,0.627 -0.428984,1.175781 -0.958984,1.175781 H 18.957031 C 18.426031,25.626953 18,25.078172 18,24.451172 L 16.984375,11.957031 c 0,-0.628 0.427031,-1.115234 0.957031,-1.115234 z m 1.421875,16.515625 a 1.895,2.237 0 0 1 1.894531,2.236328 1.895,2.237 0 0 1 -1.894531,2.238281 1.895,2.237 0 0 1 -1.896484,-2.238281 1.895,2.237 0 0 1 1.896484,-2.236328 z"
     style="fill:#d51921;fill-opacity:1" /><path
     inkscape:connector-curvature="0"
     style="fill:#507c7c;fill-opacity:1"
     d="m 6.1882499,230.12399 c 0,2.317 1.874,4.191 4.1920001,4.191 1.155,0 2.233,-0.438 2.994,-1.198 l 7.641,-7.646 2.048,2.048 c -0.275,1.006 -0.012,2.132 0.785,2.934 l 2.97,2.971 c 1.185,1.179 3.083,1.191 4.251,0.023 1.168,-1.169 1.156,-3.065 -0.024,-4.251 l -2.97,-2.971 c -0.802,-0.797 -1.928,-1.06 -2.934,-0.784 l -2.048,-2.042 1.317,-1.317 c 2.802,0.707 5.892,-0.03 8.078,-2.167 1.503,-1.474 2.33,-3.342 2.443,-5.275 v -0.102 c 0,-0.654 -0.539,-1.181 -1.204,-1.181 -0.329,0 -0.629,0.133 -0.851,0.342 l -0.353,0.348 -1.209,1.185 c -0.761,0.742 -1.844,1.18 -3.012,1.18 -1.162,0 -2.186,-0.509 -2.946,-1.258 -0.749,-0.76 -1.263,-1.79 -1.263,-2.951 0,-1.168 0.437,-2.252 1.179,-3.013 l 1.186,-1.209 0.347,-0.353 c 0.209,-0.222 0.342,-0.521 0.342,-0.852 0,-0.664 -0.527,-1.203 -1.18,-1.203 h -0.102 c -1.934,0.113 -3.802,0.94 -5.275,2.443 -2.138,2.186 -2.868,5.275 -2.162,8.072 l -1.322,1.322 -5.527,-5.532 v -1.516 l -3.5930001,-1.796 -1.796,1.796 1.796,3.593 h 1.5089998 l 5.5330003,5.527 -7.6410001,7.646 c -0.762,0.761 -1.199,1.841 -1.199,2.996 z m 2.993,-0.3 c 0,-0.826 0.6709998,-1.497 1.4970001,-1.497 0.826,0 1.497,0.671 1.497,1.497 0,0.826 -0.671,1.498 -1.497,1.498 -0.8250003,0 -1.4970001,-0.672 -1.4970001,-1.498 z"
     id="Méthode" /><path
     inkscape:connector-curvature="0"
     id="path391"
     d="m 14.869141,44.486328 c -5.9020001,0 -10.5937504,4.69075 -10.5937504,10.59375 0,5.903 4.6917503,10.595703 10.5937504,10.595703 1.355688,0 2.64232,-0.258075 3.828125,-0.710937 l 2.224609,2.224609 h 3.027344 v 3.025391 h 3.027343 v 3.027344 l 1.058594,1.058593 c 0.303,0.304 0.605547,0.455078 1.060547,0.455078 h 3.933594 c 0.908,0 1.513672,-0.604672 1.513672,-1.513671 v -3.9375 c 0,-0.453001 -0.150125,-0.756594 -0.453125,-1.058594 l -9.337891,-9.335938 c 0.453205,-1.186317 0.710938,-2.473482 0.710938,-3.830078 0,-5.903 -4.69175,-10.59375 -10.59375,-10.59375 z m -2.271485,4.541016 c 2.119,0 3.783203,1.664203 3.783203,3.783203 10e-4,2.118 -1.664203,3.783203 -3.783203,3.783203 -2.119,0 -3.7832029,-1.665203 -3.7832029,-3.783203 0,-2.119 1.6642029,-3.783203 3.7832029,-3.783203 z"
     style="fill:#507c7c;fill-opacity:1" /><path
     inkscape:connector-curvature="0"
     style="fill:#507c7c;fill-opacity:1"
     d="m 33.512609,110.59063 -7.559,-7.56 c 1.079,-1.762 1.733,-3.813999 1.733,-6.033999 0,-6.434 -5.219,-11.651 -11.651,-11.651 -6.4340003,0 -11.6510005,5.218 -11.6510005,11.651 0,6.432999 5.2180002,11.650999 11.6510005,11.650999 2.22,0 4.272,-0.654 6.034,-1.729 l 7.559,7.556 c 0.531,0.53 1.411,0.527 1.942,0 l 1.942,-1.942 c 0.531,-0.531 0.531,-1.411 0,-1.942 z m -17.477,-5.826 c -4.29,0 -7.7680005,-3.478 -7.7680005,-7.767999 0,-4.29 3.4780005,-7.768 7.7680005,-7.768 4.29,0 7.768,3.478 7.768,7.768 0,4.289999 -3.478,7.767999 -7.768,7.767999 z"
     id="Remarque" /><path
     inkscape:connector-curvature="0"
     style="fill:#507c7c;fill-opacity:1"
     d="m 20.055801,128.76634 c 1.162,-0.034 2.084,-0.956 2.119,-2.118 0.034,-1.265 -0.991,-2.29 -2.256,-2.256 -1.162,0.034 -2.084,0.956 -2.119,2.118 -0.034,1.265 0.991,2.29 2.256,2.256 z m 15.857,13.123 h -0.615 l -4.34,-8.406 c 0.615,-0.069 1.23,-0.308 1.777,-0.547 0.82,-0.376 0.991,-1.47 0.376,-2.118 l -0.034,-0.035 c -0.376,-0.375 -0.957,-0.512 -1.47,-0.273 -0.479,0.205 -1.162,0.444 -1.811,0.444 -1.914,0 -2.769,-2.188 -9.808,-2.188 -7.04,0 -7.895,2.188 -9.808,2.188 -0.6840003,0 -1.3330003,-0.205 -1.8120003,-0.444 -0.513,-0.205 -1.094,-0.102 -1.47,0.273 l -0.034,0.035 c -0.615,0.648 -0.444,1.708 0.376,2.118 0.547,0.272 1.162,0.478 1.777,0.547 l -4.34,8.406 h -0.615 c -0.273,0 -0.479,0.239 -0.444,0.513 0.376,2.188 3.145,3.862 6.5270003,3.862 3.384,0 6.152,-1.674 6.527,-3.862 0.035,-0.273 -0.171,-0.513 -0.444,-0.513 h -0.616 l -4.34,-8.372 c 2.836,-0.24 4.34,-1.675 6.527,-1.675 v 16.609 c -1.196,0 -2.188,0.991 -2.188,2.187 h -2.426 c -0.957,0 -1.948,0.991 -1.948,2.188 h 17.498 c 0,-1.196 -0.991,-2.188 -2.426,-2.188 h -1.948 c 0,-1.195 -0.991,-2.187 -2.187,-2.187 v -16.609 c 2.187,0 3.69,1.435 6.527,1.675 l -4.34,8.372 h -0.615 c -0.273,0 -0.479,0.239 -0.445,0.513 0.376,2.188 3.144,3.862 6.527,3.862 3.384,0 6.152,-1.674 6.528,-3.862 0.035,-0.274 -0.17,-0.513 -0.443,-0.513 z m -22.488,0 H 6.8638007 l 3.2810003,-6.151 z m 13.124,0 3.28,-6.151 3.281,6.151 z"
     id="Texte_légal" /><path
     inkscape:connector-curvature="0"
     style="fill:#507c7c;fill-opacity:1"
     d="m 7.6958407,183.69554 h 5.8420003 v 1.947 H 7.6958407 Z m 3.8860003,-17.525 h 17.541 c 1.072,0 1.939,0.878 1.939,1.96 v 23.34 c 0,1.085 -0.867,1.961 -1.939,1.961 h -17.541 c -1.072,0 -1.9380003,-0.878 -1.9380003,-1.961 v -3.881 h 3.8950003 c 1.075,0 1.947,-0.863 1.947,-1.945 v -1.951 c 0,-1.075 -0.864,-1.945 -1.947,-1.945 H 9.6438407 v -3.894 h 3.8950003 c 1.075,0 1.947,-0.863 1.947,-1.946 v -1.951 c 0,-1.074 -0.864,-1.944 -1.947,-1.944 H 9.6438407 v -3.882 c -10e-4,-1.086 0.8670003,-1.961 1.9380003,-1.961 z m -3.8860003,7.789 h 5.8420003 v 1.946 H 7.6958407 Z"
     id="Rectangle_143" /><path
     inkscape:connector-curvature="0"
     style="display:inline;fill:#507c7c;fill-opacity:1"
     d="m 32.36384,249.95242 c 0.723,0 1.308,0.577 1.308,1.288 v 20.739 c 0,0.71 -0.569,1.285 -1.298,1.285 H 6.4778395 c -0.717,0 -1.298,-0.575 -1.298,-1.285 v -20.739 c 0,-0.711 0.574,-1.288 1.307,-1.288 H 10.36084 v 1.296 l -3.8860005,0.061 v 20.661 H 32.37684 v -20.722 h -3.885 v -1.296 z m -9.053,0 h -1.295 v 1.296 h 1.295 z m -6.475,0 h -1.295 v 1.296 h 1.295 z m -4.898,6.475 c -0.157,0 -0.283,0.116 -0.283,0.261 v 0.776 c 0,0.144 0.125,0.259 0.283,0.259 h 14.975 c 0.157,0 0.283,-0.114 0.283,-0.259 v -0.776 c 0,-0.145 -0.125,-0.261 -0.283,-0.261 z m 0,5.181 c -0.157,0 -0.283,0.116 -0.283,0.261 v 0.776 c 0,0.143 0.125,0.258 0.283,0.258 h 14.975 c 0.157,0 0.283,-0.113 0.283,-0.258 v -0.776 c 0,-0.145 -0.125,-0.261 -0.283,-0.261 z m 0,5.181 c -0.157,0 -0.283,0.116 -0.283,0.261 v 0.776 c 0,0.143 0.125,0.258 0.283,0.258 h 14.975 c 0.157,0 0.283,-0.113 0.283,-0.258 v -0.776 c 0,-0.145 -0.125,-0.261 -0.283,-0.261 z m 1.012,-14.247 c 0.715,0 1.295,-1.159 1.295,-2.591 0,-1.429 -0.58,-2.59 -1.295,-2.59 -0.715,0 -1.295,1.161 -1.295,2.59 0,1.432 0.58,2.591 1.295,2.591 z m 6.475,0 c 0.716,0 1.295,-1.159 1.295,-2.591 0,-1.429 -0.58,-2.59 -1.295,-2.59 -0.715,0 -1.295,1.161 -1.295,2.59 0,1.432 0.581,2.591 1.295,2.591 z m 6.476,0 c 0.716,0 1.295,-1.159 1.295,-2.591 0,-1.429 -0.58,-2.59 -1.295,-2.59 -0.715,0 -1.295,1.161 -1.295,2.59 0,1.432 0.579,2.591 1.295,2.591 z"
     id="path-1" /><path
     inkscape:connector-curvature="0"
     id="polygon408"
     d="m 13.365234,286.9043 -5.8085934,5.19531 v 20.36133 H 21.369141 v -1.82813 H 9.6132807 v -16.54492 h 5.9589853 v -5.35742 h 9.539062 v 5.66015 h 2.056641 v -7.48632 z m 10.900391,10.24414 v 5.64453 h -6.013672 v 4.09375 h 6.013672 v 5.64453 h 4.382813 v -5.64453 h 6.023437 v -4.09375 h -6.023437 v -5.64453 z"
     style="fill:#507c7c;fill-opacity:1" /><path
     inkscape:connector-curvature="0"
     d="m 18.277198,329.23228 c -3.243,0 -5.879,2.637 -5.879,5.879 0,0.271 0.22,0.49 0.49,0.49 0.271,0 0.49,-0.22 0.49,-0.49 0,-2.701 2.198,-4.898 4.899,-4.898 0.271,0 0.49,-0.221 0.49,-0.49 0,-0.269 -0.22,-0.491 -0.49,-0.491 z m 0.728026,-4.21597 c -5.954,0 -10.779,4.825 -10.779,10.778 0,3.951 3.614,8.137 4.93,11.813 1.963,5.483 1.745,8.766 5.849,8.766 4.165,0 3.885,-3.267 5.849,-8.742 1.321,-3.685 4.93,-7.916 4.93,-11.836 0,-5.954 -4.827,-10.779 -10.779,-10.779 z m 2.54,26.629 -4.858,0.606 c -0.173,-0.501 -0.359,-1.088 -0.585,-1.854 -0.003,-0.01 -0.007,-0.021 -0.009,-0.031 l 6.064,-0.758 c -0.086,0.289 -0.178,0.594 -0.259,0.865 -0.129,0.442 -0.244,0.825 -0.353,1.172 z m -5.739,-2.221 c -0.178,-0.59 -0.379,-1.211 -0.602,-1.87 h 7.609 c -0.121,0.353 -0.241,0.704 -0.345,1.038 z m 3.199,4.989 c -0.993,0 -1.449,-0.114 -1.957,-1.225 l 4.153,-0.521 c -0.602,1.622 -1.04,1.746 -2.196,1.746 z m 4.578,-8.82 h -9.146 c -0.488,-1.058 -1.074,-2.116 -1.652,-3.151 -1.278,-2.289 -2.599,-4.655 -2.599,-6.647 0,-4.862 3.956,-8.818 8.819,-8.818 4.863,0 8.819,3.956 8.819,8.818 0,1.978 -1.322,4.356 -2.603,6.658 -0.572,1.032 -1.154,2.089 -1.638,3.14 z"
     style="fill:#9f590e;fill-opacity:1"
     id="path415" /><path
     inkscape:connector-curvature="0"
     id="path418"
     d="m 23.681641,365.33008 c -1.692066,0 -3.082032,1.38559 -3.082032,3.07812 0,1.24299 0.750104,2.3155 1.81836,2.80078 l -1.525391,4.32032 c -0.295304,-0.0784 -0.598908,-0.13282 -0.917969,-0.13282 -1.996235,0 -3.630859,1.6367 -3.630859,3.63086 0,0.0248 0.0073,0.0476 0.0078,0.0723 l -4.263671,0.99805 C 11.755819,378.75635 10.546075,377.75 9.1054688,377.75 c -1.6920657,0 -3.0781251,1.38663 -3.078125,3.08008 0.00119,1.69164 1.3873374,3.07812 3.078125,3.07812 1.6109782,0 2.9316222,-1.26054 3.0566402,-2.83984 l 4.347657,-1.01758 c 0.447367,1.4977 1.826508,2.60547 3.464843,2.60547 0.03145,0 0.06053,-0.009 0.0918,-0.01 l 0.273438,6.13086 c -1.158347,0.44291 -1.992187,1.56001 -1.992188,2.86914 0,1.6916 1.386395,3.07813 3.080078,3.07813 1.692065,0 3.078125,-1.38606 3.078125,-3.07813 0,-1.69287 -1.386529,-3.07812 -3.078125,-3.07812 -0.03278,0 -0.06316,0.009 -0.0957,0.01 l -0.271484,-6.10742 c 0.843413,-0.26861 1.55114,-0.83086 2.003906,-1.57422 l 2.035156,1.01368 c -0.08367,0.27879 -0.142578,0.56809 -0.142578,0.87304 0.0012,1.69164 1.386863,3.07813 3.080078,3.07813 1.690787,0 3.078125,-1.38606 3.078125,-3.07813 0,-1.69287 -1.386868,-3.08007 -3.078125,-3.08008 -1.046666,0 -1.97397,0.53164 -2.53125,1.33594 l -2.05664,-1.02539 c 0.09053,-0.31592 0.154297,-0.64243 0.154297,-0.98633 0,-1.33398 -0.739009,-2.49582 -1.820313,-3.12695 l 1.570313,-4.44531 c 0.109173,0.0118 0.215958,0.0332 0.328125,0.0332 1.691831,0 3.078125,-1.38524 3.078125,-3.07812 0,-1.69206 -1.385825,-3.08008 -3.078125,-3.08008 z"
     style="color:#000000;font-style:normal;font-variant:normal;font-weight:normal;font-stretch:normal;font-size:medium;line-height:normal;font-family:sans-serif;font-variant-ligatures:normal;font-variant-position:normal;font-variant-caps:normal;font-variant-numeric:normal;font-variant-alternates:normal;font-feature-settings:normal;text-indent:0;text-align:start;text-decoration:none;text-decoration-line:none;text-decoration-style:solid;text-decoration-color:#000000;letter-spacing:normal;word-spacing:normal;text-transform:none;writing-mode:lr-tb;direction:ltr;text-orientation:mixed;dominant-baseline:auto;baseline-shift:baseline;text-anchor:start;white-space:normal;shape-padding:0;clip-rule:nonzero;display:inline;overflow:visible;visibility:visible;opacity:1;isolation:auto;mix-blend-mode:normal;color-interpolation:sRGB;color-interpolation-filters:linearRGB;solid-color:#000000;solid-opacity:1;vector-effect:none;fill:#507c7c;fill-opacity:1;fill-rule:nonzero;stroke:none;stroke-width:1;stroke-linecap:butt;stroke-linejoin:miter;stroke-miterlimit:10;stroke-dasharray:none;stroke-dashoffset:0;stroke-opacity:1;color-rendering:auto;image-rendering:auto;shape-rendering:auto;text-rendering:auto;enable-background:accumulate" /><path
     inkscape:connector-curvature="0"
     d="m 19.215032,430.96436 c -1.336,0 -2.59,-0.522 -3.535,-1.469 -0.945,-1.105 -1.465,-2.359 -1.465,-3.695 0,-1.336 0.52,-2.59 1.465,-3.371 l 6.688,-6.688 c 0.755,-0.758 1.171,-1.762 1.171,-2.828 0,-1.07 -0.416,-2.074 -1.172,-2.828 -1.559,-1.559 -4.096,-1.562 -5.654,0 -0.758,0.754 -1.174,1.758 -1.174,2.828 h -4 c 0,-2.137 0.834,-4.148 2.348,-5.66 3.02,-3.022 8.285,-3.02 11.309,0.004 1.511,1.508 2.343,3.516 2.343,5.656 0,2.137 -0.832,4.145 -2.344,5.656 l -6.688,6.523 c -0.389,0.391 -0.389,1.022 0,1.414 0.391,0.391 1.023,0.391 1.414,0 0.255,-0.258 0.293,-0.556 0.293,-0.711 h 4 c 0,1.336 -0.521,2.594 -1.465,3.698 -0.944,0.947 -2.198,1.471 -3.534,1.471 z m 1.924,4.023 c 0,1.102 -0.895,2 -2,2 -1.105,0 -2,-0.898 -2,-2 0,-1.109 0.895,-2 2,-2 1.105,0 2,0.891 2,2 z"
     style="fill:#507c7c;fill-opacity:1"
     id="path441" /><path
     inkscape:connector-curvature="0"
     d="m 25.895273,459.76482 c -0.0058,-0.19232 -0.02335,-1.16437 -0.837262,-2.33732 -0.794057,-1.17484 -2.505949,-2.43728 -5.202237,-2.96567 -1.682699,-0.36369 -2.162636,-0.88732 -2.461575,-1.27481 -0.13896,-0.19803 -0.206688,-0.38178 -0.235882,-0.49888 -0.01168,-0.0438 -0.01635,-0.0771 -0.01985,-0.0971 0.08057,-1.12058 0.429725,-1.19294 0.97739,-1.49379 0.284926,-0.11805 0.630574,-0.19231 0.887475,-0.22564 0.124947,-0.0181 0.232378,-0.0257 0.289597,-0.0295 0.01635,-9.5e-4 0.03036,-0.002 0.03853,-0.002 1.410618,0.0609 1.495862,0.34465 1.866032,0.79879 0.145967,0.23135 0.23705,0.51411 0.279088,0.72166 0.01985,0.10473 0.03153,0.18946 0.0362,0.23897 0.0023,0.0238 0.0023,0.04 0.0023,0.0457 l 0.707644,-0.02 h 3.671344 c -0.01168,-0.14852 0.01518,-1.26053 -0.778876,-2.5839 -0.721658,-1.33288 -2.825907,-2.83333 -5.789606,-2.7705 -0.183333,0.01 -1.547242,-0.0133 -3.169219,0.63312 -1.634822,0.58933 -3.473997,2.304 -3.399262,4.72128 0.0035,0.19232 0.02335,1.16533 0.834927,2.33636 0.234714,0.3456 0.558175,0.69691 0.952868,1.0368 -0.444905,0.38082 -0.795224,0.78831 -1.011255,1.18436 -0.79172,1.32337 -0.767198,2.43538 -0.777708,2.5839 0.0035,0.19137 0.02336,1.16437 0.836095,2.33636 0.796392,1.1739 2.507116,2.43633 5.199902,2.96377 1.685034,0.36464 2.164971,0.88828 2.462742,1.27481 0.13896,0.19899 0.206688,0.38464 0.238217,0.49984 0.01051,0.04 0.01752,0.0723 0.01868,0.0942 -0.07707,1.12629 -0.427389,1.19674 -0.976222,1.4995 -0.286094,0.11901 -0.63291,0.19136 -0.886307,0.22373 -0.128451,0.019 -0.232379,0.0267 -0.293101,0.0295 -0.02335,9.5e-4 -0.04087,0.002 -0.05021,0.003 -1.396605,-0.0647 -1.483017,-0.34655 -1.854355,-0.79878 -0.144799,-0.23135 -0.235882,-0.51411 -0.276752,-0.72356 -0.02335,-0.10283 -0.03153,-0.18946 -0.0362,-0.23707 -0.0035,-0.0229 -0.0035,-0.0362 -0.0035,-0.0438 v -0.004 l -0.729831,0.0209 h -3.649157 c 0.01168,0.14661 -0.01401,1.25957 0.777708,2.58389 0.708813,1.30528 2.741831,2.77241 5.613279,2.77241 0.05955,0 0.11794,-9.5e-4 0.17983,-0.002 0.183334,-0.01 1.547242,0.0133 3.166884,-0.63407 1.634822,-0.58837 3.4775,-2.30494 3.40043,-4.72032 -0.0047,-0.19423 -0.02336,-1.16723 -0.83376,-2.33827 -0.234713,-0.3456 -0.558175,-0.69691 -0.952867,-1.0368 0.444905,-0.38082 0.795224,-0.7883 1.008918,-1.18436 0.794057,-1.32146 0.766031,-2.43157 0.778876,-2.58104 z m -8.498739,0.56552 c -0.142463,-0.19898 -0.206688,-0.38177 -0.239384,-0.49983 -0.01051,-0.04 -0.01635,-0.0714 -0.01985,-0.0933 0.01401,-0.1609 0.110935,-0.69215 0.370171,-1.04537 0.332803,-0.36654 0.470595,-0.61693 1.564758,-0.69595 1.449153,0.35988 1.902232,0.84162 2.183655,1.20435 0.13896,0.20089 0.207856,0.38273 0.238217,0.50079 0.01051,0.0419 0.01868,0.0752 0.01985,0.0942 -0.01635,0.16566 -0.109766,0.6912 -0.369002,1.04346 -0.333971,0.3675 -0.472931,0.61789 -1.571765,0.69501 -1.44565,-0.35893 -1.896393,-0.84162 -2.176649,-1.20341 z"
     id="path447"
     style="fill:#507c7c;stroke-width:1.05439639;fill-opacity:1" /></svg>