<?xml version="1.0" encoding="UTF-8" standalone="no"?>
<svg
   xmlns:dc="http://purl.org/dc/elements/1.1/"
   xmlns:cc="http://creativecommons.org/ns#"
   xmlns:rdf="http://www.w3.org/1999/02/22-rdf-syntax-ns#"
   xmlns:svg="http://www.w3.org/2000/svg"
   xmlns="http://www.w3.org/2000/svg"
   id="svg2"
   height="220.00099"
   width="20"
   version="1.1">
  <defs
     id="defs4" />
  <metadata
     id="metadata7">
    <rdf:RDF>
      <cc:Work
         rdf:about="">
        <dc:format>image/svg+xml</dc:format>
        <dc:type
           rdf:resource="http://purl.org/dc/dcmitype/StillImage" />
        <dc:title></dc:title>
      </cc:Work>
    </rdf:RDF>
  </metadata>
  <path
     transform="matrix(0.52008225,0,0,0.52008225,147.56756,-61.960691)"
     d="m -245.28344,138.36406 a 19.227728,19.227728 0 1 1 -38.45546,0 19.227728,19.227728 0 1 1 38.45546,0 z"
     id="path3854"
     style="color:#000000;fill:#434e52;fill-opacity:1;fill-rule:nonzero;stroke:none;stroke-width:1;marker:none;visibility:visible;display:inline;overflow:visible;enable-background:accumulate" />
  <text
     id="text2982"
     y="17.940529"
     x="6.4389386"
     style="color:#000000;font-style:italic;font-variant:normal;font-weight:bold;font-stretch:normal;line-height:0%;font-family:'Bitstream Charter';-inkscape-font-specification:'Bitstream Charter Bold Italic';text-align:start;letter-spacing:0px;word-spacing:0px;writing-mode:lr-tb;text-anchor:start;display:inline;overflow:visible;visibility:visible;fill:#e0ecec;fill-opacity:1;fill-rule:nonzero;stroke:none;stroke-width:1;marker:none;enable-background:accumulate"
     xml:space="preserve"><tspan
       style="font-size:22.11846542px;line-height:1.25"
       y="17.940529"
       x="6.4389386"
       id="tspan2984">i</tspan></text>
  <g
     id="g837">
    <path
       transform="matrix(0.52008225,0,0,0.52008225,147.56756,-21.96049)"
       d="m -245.28344,138.36406 a 19.227728,19.227728 0 1 1 -38.45546,0 19.227728,19.227728 0 1 1 38.45546,0 z"
       id="path2993"
       style="color:#000000;fill:#e0ecec;fill-opacity:1;fill-rule:nonzero;stroke:none;stroke-width:1.92277277;marker:none;visibility:visible;display:inline;overflow:visible;enable-background:accumulate" />
    <path
       style="color:#000000;fill:#434e52;fill-opacity:1;fill-rule:nonzero;stroke:none;stroke-width:1;marker:none;visibility:visible;display:inline;overflow:visible;enable-background:accumulate"
       d="m 5.875011,44.125001 c -0.4483254,0 -0.8752202,0.18772 -1.21875,0.53125 -0.6870603,0.68706 -0.6870603,1.78169 0,2.46875 l 2.875,2.875 -2.875,2.875 c -0.6870596,0.68706 -0.6870603,1.78169 0,2.46875 0.6870603,0.68706 1.7816904,0.68706 2.46875,0 l 2.875,-2.875 2.875,2.875 c 0.68706,0.68706 1.78169,0.68706 2.46875,0 0.68706,-0.68706 0.68706,-1.78169 0,-2.46875 l -2.875,-2.875 2.875,-2.875 c 0.68706,-0.68706 0.68706,-1.78169 0,-2.46875 -0.68706,-0.68706 -1.78169,-0.68706 -2.46875,0 l -2.875,2.875 -2.875,-2.875 c -0.3435302,-0.34353 -0.8016746,-0.53125 -1.25,-0.53125 z"
       id="rect3002" />
  </g>
  <path
     style="color:#000000;fill:#434e52;fill-opacity:1;fill-rule:nonzero;stroke:none;stroke-width:1.92277277;marker:none;visibility:visible;display:inline;overflow:visible;enable-background:accumulate"
     id="path3004"
     d="m -245.28344,138.36406 a 19.227728,19.227728 0 1 1 -38.45546,0 19.227728,19.227728 0 1 1 38.45546,0 z"
     transform="matrix(0.52008225,0,0,0.52008225,147.56756,18.03971)" />
  <path
     id="path3006"
     d="m 5.875011,84.125201 c -0.4483254,0 -0.8752202,0.18772 -1.21875,0.53125 -0.6870603,0.68706 -0.6870603,1.78169 0,2.46875 l 2.875,2.875 -2.875,2.875 c -0.6870596,0.68706 -0.6870603,1.78169 0,2.46875 0.6870603,0.68706 1.7816904,0.68706 2.46875,0 l 2.875,-2.875 2.875,2.875 c 0.68706,0.68706 1.78169,0.68706 2.46875,0 0.68706,-0.68706 0.68706,-1.78169 0,-2.46875 l -2.875,-2.875 2.875,-2.875 c 0.68706,-0.68706 0.68706,-1.78169 0,-2.46875 -0.68706,-0.68706 -1.78169,-0.68706 -2.46875,0 l -2.875,2.875 -2.875,-2.875 c -0.3435302,-0.34353 -0.8016746,-0.53125 -1.25,-0.53125 z"
     style="color:#000000;fill:#e0ecec;fill-opacity:1;fill-rule:nonzero;stroke:none;stroke-width:1;marker:none;visibility:visible;display:inline;overflow:visible;enable-background:accumulate" />
  <path
     transform="matrix(0.52008225,0,0,0.52008225,147.56756,58.03991)"
     d="m -245.28344,138.36406 a 19.227728,19.227728 0 1 1 -38.45546,0 19.227728,19.227728 0 1 1 38.45546,0 z"
     id="path2998"
     style="color:#000000;fill:#e0ecec;fill-opacity:1;fill-rule:nonzero;stroke:none;stroke-width:1.92277277;marker:none;visibility:visible;display:inline;overflow:visible;enable-background:accumulate" />
  <path
     id="path3002"
     d="m 4.8696327,128.94955 2.1863001,5.4761 8.0744442,-8.85012"
     style="fill:none;stroke:#434e52;stroke-width:3.5;stroke-linecap:round;stroke-linejoin:round;stroke-miterlimit:4;stroke-opacity:1;stroke-dasharray:none" />
  <path
     style="color:#000000;fill:#434e52;fill-opacity:1;fill-rule:nonzero;stroke:none;stroke-width:1.92277277;marker:none;visibility:visible;display:inline;overflow:visible;enable-background:accumulate"
     id="path3789"
     d="m -245.28344,138.36406 a 19.227728,19.227728 0 1 1 -38.45546,0 19.227728,19.227728 0 1 1 38.45546,0 z"
     transform="matrix(0.52008225,0,0,0.52008225,147.56756,98.040109)" />
  <path
     style="fill:none;stroke:#e0ecec;stroke-width:3.5;stroke-linecap:round;stroke-linejoin:round;stroke-miterlimit:4;stroke-opacity:1;stroke-dasharray:none"
     d="m 4.8696327,168.94974 2.1863001,5.4761 8.0744442,-8.85012"
     id="path3791" />
  <path
     transform="matrix(0.52008225,0,0,0.52008225,147.56756,138.0403)"
     d="m -245.28344,138.36406 a 19.227728,19.227728 0 1 1 -38.45546,0 19.227728,19.227728 0 1 1 38.45546,0 z"
     id="path2992"
     style="color:#000000;fill:#434e52;fill-opacity:1;fill-rule:nonzero;stroke:none;stroke-width:1.92277277;marker:none;visibility:visible;display:inline;overflow:visible;enable-background:accumulate" />
  <g
     transform="translate(0.52304213,-0.56695947)"
     id="g3766">
    <path
       style="fill:none;stroke:#e0ecec;stroke-width:3.5;stroke-linecap:round;stroke-linejoin:round;stroke-miterlimit:4;stroke-opacity:1;stroke-dasharray:none"
       d="m 12.221882,213.41021 2.362382,2.34503"
       id="path2994" />
    <path
       style="color:#000000;fill:none;stroke:#e0ecec;stroke-width:1.43008769;stroke-miterlimit:4;stroke-opacity:1;stroke-dasharray:none;marker:none;visibility:visible;display:inline;overflow:visible;enable-background:accumulate"
       id="path2996"
       d="m 10.288908,208.93835 c 0,1.77576 -1.4395317,3.21529 -3.2152839,3.21529 -1.7757521,0 -3.2152836,-1.43953 -3.2152836,-3.21529 0,-1.77575 1.4395315,-3.21528 3.2152836,-3.21528 1.7757522,0 3.2152839,1.43953 3.2152839,3.21528 z"
       transform="matrix(1.6285714,0,0,1.6285714,-3.3438951,-131.14895)" />
  </g>
</svg>
