<?xml version="1.0" encoding="UTF-8" standalone="no"?>
<svg
   xmlns:dc="http://purl.org/dc/elements/1.1/"
   xmlns:cc="http://creativecommons.org/ns#"
   xmlns:rdf="http://www.w3.org/1999/02/22-rdf-syntax-ns#"
   xmlns:svg="http://www.w3.org/2000/svg"
   xmlns="http://www.w3.org/2000/svg"
   xml:space="preserve"
   enable-background="new 0 0 120 1236.5"
   viewBox="0 0 120 1236.5"
   height="1236.5px"
   width="120px"
   y="0px"
   x="0px"
   id="Calque_1"
   version="1.1"><metadata
   id="metadata268"><rdf:RDF><cc:Work
       rdf:about=""><dc:format>image/svg+xml</dc:format><dc:type
         rdf:resource="http://purl.org/dc/dcmitype/StillImage" /><dc:title></dc:title></cc:Work></rdf:RDF></metadata><defs
   id="defs266" />
<g
   id="Ico">
	<g
   id="Grain_de_contenu">
		<path
   id="path2"
   d="M64.475,5.623c2.129,2.406,3.406,10.181,6,9c1.332-2.666,2.666-5.334,4-8c0.334,0,0.666,0,1,0    c0.334,3.666,0.666,7.334,1,11c3-2.333,6-4.667,9-7c-0.334,3.333-0.666,6.667-1,10c3-2,6-4,9-6c-0.666,3.666-1.334,7.334-2,11    c3.332-1.666,6.666-3.334,10-5c-1.334,3.333-2.668,6.667-4,10c3.332-0.666,6.666-1.334,10-2c0,0.334,0,0.667,0,1    c-1.666,2.666-3.334,5.334-5,8c3.666-0.333,7.334-0.666,11-1c-2.334,2.666-4.668,5.334-7,8c0.666,0,1.334,0,2,0    c2.666,0.334,5.334,0.667,8,1c-2.666,2-5.334,4-8,6c0.334,0.666,0.666,1.334,1,2c3,0.666,6,1.334,9,2c0,0.334,0,0.667,0,1    c-3,1.333-6,2.667-9,4c0,0.334,0,0.667,0,1c2.666,1.333,5.334,2.667,8,4c0,0.334,0,0.667,0,1c-3,0.666-6,1.334-9,2    c0.334,0.666,0.666,1.334,1,2c2.332,1.666,4.666,3.334,7,5c-3.334,0.334-6.668,0.667-10,1c2.332,2.666,4.666,5.334,7,8    c-3.666,0-7.334,0-11,0c1.666,2.666,3.334,5.334,5,8c-3.334-0.666-6.668-1.334-10-2c1.332,3.333,2.666,6.667,4,10    c-3.334-1.333-6.668-2.667-10-4c0.666,3.333,1.334,6.667,2,10c-3-2-6-4-9-6c0,3.333,0,6.667,0,10c-2.666-2.333-5.334-4.667-8-7    c-0.334,3.666-0.666,7.334-1,11c-0.666-0.333-1.334-0.666-2-1c-1.666-2.666-3.334-5.334-5-8c0,0.666,0,1.334,0,2    c-1,2.666-2,5.334-3,8c-0.334,0-0.668,0-1,0c-1.334-3-2.668-6-4-9c-0.333,0-0.667,0-1,0c-1.333,2.666-2.667,5.334-4,8    c-0.333,0-0.667,0-1,0c-0.667-3.333-1.333-6.667-2-10c-0.667,0.334-1.333,0.667-2,1c-1.497,3.633-2.642,5.188-6,7    c0-3.333,0-6.667,0-10c-2.999,2-6.001,4-9,6c0.667-3.666,1.333-7.334,2-11c-3.333,2-6.667,4-10,6c1-3,2-6,3-9    c-3.333,0.666-6.667,1.334-10,2c1.667-3.333,3.333-6.667,5-10c-3.667,0.666-7.333,1.334-11,2c0.667-0.666,1.333-1.334,2-2    c1.667-2.333,3.333-4.667,5-7c-3.667,0-7.333,0-11,0c1-1.333,2-2.667,3-4c1.667-1.333,3.333-2.667,5-4    c-3.667-0.333-7.333-0.666-11-1c0.333-0.666,0.667-1.334,1-2c2.667-1.666,5.333-3.334,8-5c-3.333-1.333-6.667-2.667-10-4    c3.333-1,6.667-2,10-3c-2.999-2.333-6.001-4.667-9-7c3.667-0.333,7.333-0.666,11-1c-1.333-1.666-2.667-3.334-4-5    c-1.333-1-2.667-2-4-3c3.667,0,7.333,0,11,0c-1-1-2-2-3-3c-1.333-2-2.667-4-4-6c3.667,0.666,7.333,1.334,11,2    c-1.667-3.333-3.333-6.667-5-10c3.667,1.333,7.333,2.667,11,4c-0.667-3.333-1.333-6.667-2-10c2.667,1.666,5.333,3.334,8,5    c-0.333-3.666-0.667-7.334-1-11c2.333,2.333,4.667,4.667,7,7c0.667-0.333,1.333-0.666,2-1c0.333-3.333,0.667-6.667,1-10    c1.587,3.769,3.481,6.127,7,8c0.667-3,1.333-6,2-9c0.333,0.666,0.667,1.334,1,2c1.333,2.333,2.667,4.667,4,7c0.333,0,0.667,0,1,0    C62.475,12.29,63.475,8.956,64.475,5.623z"
   fill="#434E52" />
		<g
   id="g42">
			<polygon
   id="polygon4"
   points="41.728,35.328 43.147,34.317 43.885,35.595    "
   fill="#B95A59" />
			<path
   id="path6"
   d="M94.372,81.699c0,2.028-1.675,3.632-3.739,3.632H34.418c-2.066,0-3.843-1.604-3.843-3.632V41.866     c0-2.028,1.776-3.744,3.843-3.744h56.214c2.065,0,3.739,1.716,3.739,3.744L94.372,81.699L94.372,81.699z"
   fill="#FFFFFF" />
			<rect
   id="rect8"
   height="43.097"
   width="27.22"
   fill="#F7F7F7"
   y="35.287"
   x="33.269" />
			<path
   id="path10"
   d="M62.544,80.312c0.255-0.959,1.063-1.689,2.056-1.823v-0.104h-4.111v0.104     C61.48,78.622,62.29,79.353,62.544,80.312z"
   fill="#C6C5C4" />
			
				<linearGradient
   gradientTransform="matrix(1 0 0 1 -281.7002 -1243.9805)"
   y2="1301.8125"
   x2="346.2998"
   y1="1301.8125"
   x1="342.1875"
   gradientUnits="userSpaceOnUse"
   id="SVGID_1_">
				<stop
   id="stop12"
   style="stop-color:#EFEFEF"
   offset="0" />
				<stop
   id="stop14"
   style="stop-color:#E6E6E6"
   offset="1" />
			</linearGradient>
			<path
   id="path17"
   d="M64.6,35.354v43.134c-0.992,0.136-1.799,0.864-2.056,1.823c-0.256-0.959-1.063-1.688-2.056-1.823     V35.354c1.134,0.129,1.815,0.835,2.056,1.768C62.786,36.188,63.607,35.482,64.6,35.354z"
   fill="url(#SVGID_1_)" />
			<polygon
   id="polygon19"
   points="85.157,71.05 64.316,78.296 64.316,35.497 85.157,28.251    "
   fill="#EFEFEF" />
			<rect
   id="rect21"
   height="3.687"
   width="58.551"
   fill="#D1D0CF"
   y="78.384"
   x="33.269" />
			<rect
   id="rect23"
   height="43.097"
   width="27.22"
   fill="#F7F7F7"
   y="35.287"
   x="33.269" />
			<rect
   id="rect25"
   height="43.097"
   width="27.221"
   fill="#F4F4F4"
   y="35.287"
   x="64.6" />
			
				<linearGradient
   gradientTransform="matrix(1 0 0 1 -281.7002 -1243.9805)"
   y2="1301.8125"
   x2="346.2998"
   y1="1301.8125"
   x1="342.1875"
   gradientUnits="userSpaceOnUse"
   id="SVGID_2_">
				<stop
   id="stop27"
   style="stop-color:#EFEFEF"
   offset="0" />
				<stop
   id="stop29"
   style="stop-color:#E6E6E6"
   offset="1" />
			</linearGradient>
			<path
   id="path32"
   d="M64.6,35.354v43.134c-0.992,0.136-1.799,0.864-2.056,1.823c-0.256-0.959-1.063-1.688-2.056-1.823     V35.354c1.134,0.129,1.815,0.835,2.056,1.768C62.786,36.188,63.607,35.482,64.6,35.354z"
   fill="url(#SVGID_2_)" />
			<polygon
   id="polygon34"
   points="64.863,35.328 64.715,35.38 64.715,35.328    "
   fill="#F4F4F4" />
			<path
   id="path36"
   d="M91.82,35.287v3.103c-0.426-0.128-0.764-0.268-1.188-0.268h-5.476v-2.835H91.82z"
   fill="#F4F4F4" />
			<polygon
   id="polygon38"
   points="85.157,71.13 64.316,78.407 64.316,35.417 85.157,28.139    "
   fill="#E0E2E0" />
			<polygon
   id="polygon40"
   points="40.712,66.562 43.051,68.508 43.051,34.294 38.373,34.294 38.373,68.506    "
   fill="#F67876" />
		</g>
	</g>
	<g
   id="Question_de_synthèse">
		<path
   id="path45"
   d="M62.488,879.029c2.13,2.405,3.408,10.181,6,9c1.334-2.666,2.668-5.334,4-8c0.334,0,0.666,0,1,0    c0.334,3.666,0.666,7.334,1,11c3-2.333,6-4.667,9-7c-0.334,3.333-0.666,6.667-1,10c3-2,6-4,9-6c-0.666,3.666-1.334,7.334-2,11    c3.334-1.666,6.668-3.334,10-5c-1.332,3.333-2.666,6.667-4,10c3.334-0.666,6.668-1.334,10-2c0,0.334,0,0.667,0,1    c-1.666,2.666-3.334,5.334-5,8c3.666-0.333,7.334-0.666,11-1c-2.332,2.666-4.666,5.334-7,8c0.666,0,1.334,0,2,0    c2.666,0.334,5.334,0.667,8,1c-2.666,2-5.334,4-8,6c0.334,0.666,0.666,1.334,1,2c3,0.666,6,1.334,9,2c0,0.334,0,0.667,0,1    c-3,1.333-6,2.667-9,4c0,0.334,0,0.667,0,1c2.666,1.333,5.334,2.667,8,4c0,0.334,0,0.667,0,1c-3,0.666-6,1.334-9,2    c0.334,0.666,0.666,1.334,1,2c2.334,1.666,4.668,3.334,7,5c-3.332,0.334-6.666,0.667-10,1c2.334,2.666,4.668,5.334,7,8    c-3.666,0-7.334,0-11,0c1.666,2.666,3.334,5.334,5,8c-3.332-0.666-6.666-1.334-10-2c1.334,3.333,2.668,6.667,4,10    c-3.332-1.333-6.666-2.667-10-4c0.666,3.333,1.334,6.667,2,10c-3-2-6-4-9-6c0,3.333,0,6.667,0,10c-2.666-2.333-5.334-4.667-8-7    c-0.334,3.666-0.666,7.334-1,11c-0.666-0.333-1.334-0.666-2-1c-1.666-2.666-3.334-5.334-5-8c0,0.666,0,1.334,0,2    c-1,2.666-2,5.334-3,8c-0.334,0-0.666,0-1,0c-1.332-3-2.667-6-4-9c-0.333,0-0.667,0-1,0c-1.333,2.666-2.667,5.334-4,8    c-0.333,0-0.667,0-1,0c-0.667-3.333-1.333-6.667-2-10c-0.667,0.334-1.333,0.667-2,1c-1.497,3.633-2.642,5.188-6,7    c0-3.333,0-6.667,0-10c-2.999,2-6.001,4-9,6c0.667-3.666,1.333-7.334,2-11c-3.333,2-6.667,4-10,6c1-3,2-6,3-9    c-3.333,0.666-6.667,1.334-10,2c1.667-3.333,3.333-6.667,5-10c-3.667,0.666-7.333,1.334-11,2c0.667-0.666,1.333-1.334,2-2    c1.667-2.333,3.333-4.667,5-7c-3.667,0-7.333,0-11,0c1-1.333,2-2.667,3-4c1.667-1.333,3.333-2.667,5-4    c-3.667-0.333-7.333-0.666-11-1c0.333-0.666,0.667-1.334,1-2c2.667-1.666,5.333-3.334,8-5c-3.333-1.333-6.667-2.667-10-4    c3.333-1,6.667-2,10-3c-2.999-2.333-6.001-4.667-9-7c3.667-0.333,7.333-0.666,11-1c-1.333-1.666-2.667-3.334-4-5    c-1.333-1-2.667-2-4-3c3.667,0,7.333,0,11,0c-1-1-2-2-3-3c-1.333-2-2.667-4-4-6c3.667,0.666,7.333,1.334,11,2    c-1.667-3.333-3.333-6.667-5-10c3.667,1.333,7.333,2.667,11,4c-0.667-3.333-1.333-6.667-2-10c2.667,1.666,5.333,3.334,8,5    c-0.333-3.666-0.667-7.334-1-11c2.333,2.333,4.667,4.667,7,7c0.667-0.333,1.333-0.666,2-1c0.333-3.333,0.667-6.667,1-10    c1.587,3.769,3.481,6.127,7,8c0.667-3,1.333-6,2-9c0.333,0.666,0.667,1.334,1,2c1.333,2.333,2.667,4.667,4,7c0.333,0,0.667,0,1,0    C60.489,885.696,61.488,882.362,62.488,879.029z"
   fill="#434E52" />
		<g
   id="g65">
			<path
   id="path47"
   d="M94.555,915.218v27.758c0,2.237-1.785,3.971-4.021,3.971H88.5v8.051l-6.816-8.051H45.841     c-2.238,0-4.271-1.732-4.271-3.971v-27.758c0-2.237,2.034-4.191,4.271-4.191h44.691C92.77,911.025,94.555,912.979,94.555,915.218     z"
   fill="#F67876" />
			<circle
   id="circle49"
   r="5.406"
   cy="930.312"
   cx="70.836"
   fill="#ABB7B7" />
			<circle
   id="circle51"
   r="5.406"
   cy="930.312"
   cx="56.669"
   fill="#ABB7B7" />
			<polygon
   id="polygon53"
   points="47.171,948.734 36.202,963.034 36.202,948.734    "
   fill="#4A8D8A" />
			<path
   id="path55"
   d="M88.5,954.996v-8.051h2.033c2.236,0,4.021-1.732,4.021-3.971     v-12.189l-12.539-14.76l-4.48,30.92h4.146L88.5,954.996z"
   enable-background="new    "
   fill="#292826"
   opacity="0.3" />
			<path
   id="path57"
   d="M82.857,948.918c0,2.406-1.951,4.358-4.358,4.358H34.78c-2.407,0-4.358-1.952-4.358-4.358v-30.369     c0-2.407,1.951-4.357,4.358-4.357h43.719c2.407,0,4.358,1.95,4.358,4.357V948.918z"
   fill="#4A8D8A" />
			<circle
   id="circle59"
   r="5.406"
   cy="933.757"
   cx="56.673"
   enable-background="new    "
   fill="#FFFFFF"
   opacity="0.8" />
			<circle
   id="circle61"
   r="5.406"
   cy="933.757"
   cx="70.84"
   enable-background="new    "
   fill="#FFFFFF"
   opacity="0.8" />
			<circle
   id="circle63"
   r="5.406"
   cy="933.757"
   cx="42.506"
   enable-background="new    "
   fill="#FFFFFF"
   opacity="0.8" />
		</g>
	</g>
	<g
   id="Division">
		<path
   id="path68"
   d="M62.488,754.257c2.13,2.406,3.408,10.181,6,9c1.334-2.666,2.668-5.334,4-8c0.334,0,0.666,0,1,0    c0.334,3.666,0.666,7.334,1,11c3-2.333,6-4.667,9-7c-0.334,3.333-0.666,6.667-1,10c3-2,6-4,9-6c-0.666,3.666-1.334,7.334-2,11    c3.334-1.666,6.668-3.334,10-5c-1.332,3.333-2.666,6.667-4,10c3.334-0.666,6.668-1.334,10-2c0,0.334,0,0.667,0,1    c-1.666,2.666-3.334,5.334-5,8c3.666-0.333,7.334-0.666,11-1c-2.332,2.666-4.666,5.334-7,8c0.666,0,1.334,0,2,0    c2.666,0.334,5.334,0.667,8,1c-2.666,2-5.334,4-8,6c0.334,0.666,0.666,1.334,1,2c3,0.666,6,1.334,9,2c0,0.334,0,0.667,0,1    c-3,1.333-6,2.667-9,4c0,0.334,0,0.667,0,1c2.666,1.333,5.334,2.667,8,4c0,0.334,0,0.667,0,1c-3,0.666-6,1.334-9,2    c0.334,0.666,0.666,1.334,1,2c2.334,1.666,4.668,3.334,7,5c-3.332,0.334-6.666,0.667-10,1c2.334,2.666,4.668,5.334,7,8    c-3.666,0-7.334,0-11,0c1.666,2.666,3.334,5.334,5,8c-3.332-0.666-6.666-1.334-10-2c1.334,3.333,2.668,6.667,4,10    c-3.332-1.333-6.666-2.667-10-4c0.666,3.333,1.334,6.667,2,10c-3-2-6-4-9-6c0,3.333,0,6.667,0,10c-2.666-2.333-5.334-4.667-8-7    c-0.334,3.666-0.666,7.334-1,11c-0.666-0.333-1.334-0.666-2-1c-1.666-2.666-3.334-5.334-5-8c0,0.666,0,1.334,0,2    c-1,2.666-2,5.334-3,8c-0.334,0-0.666,0-1,0c-1.332-3-2.667-6-4-9c-0.333,0-0.667,0-1,0c-1.333,2.666-2.667,5.334-4,8    c-0.333,0-0.667,0-1,0c-0.667-3.333-1.333-6.667-2-10c-0.667,0.334-1.333,0.667-2,1c-1.497,3.633-2.642,5.188-6,7    c0-3.333,0-6.667,0-10c-2.999,2-6.001,4-9,6c0.667-3.666,1.333-7.334,2-11c-3.333,2-6.667,4-10,6c1-3,2-6,3-9    c-3.333,0.666-6.667,1.334-10,2c1.667-3.333,3.333-6.667,5-10c-3.667,0.666-7.333,1.334-11,2c0.667-0.666,1.333-1.334,2-2    c1.667-2.333,3.333-4.667,5-7c-3.667,0-7.333,0-11,0c1-1.333,2-2.667,3-4c1.667-1.333,3.333-2.667,5-4    c-3.667-0.333-7.333-0.666-11-1c0.333-0.666,0.667-1.334,1-2c2.667-1.666,5.333-3.334,8-5c-3.333-1.333-6.667-2.667-10-4    c3.333-1,6.667-2,10-3c-2.999-2.333-6.001-4.667-9-7c3.667-0.333,7.333-0.666,11-1c-1.333-1.666-2.667-3.334-4-5    c-1.333-1-2.667-2-4-3c3.667,0,7.333,0,11,0c-1-1-2-2-3-3c-1.333-2-2.667-4-4-6c3.667,0.666,7.333,1.334,11,2    c-1.667-3.333-3.333-6.667-5-10c3.667,1.333,7.333,2.667,11,4c-0.667-3.333-1.333-6.667-2-10c2.667,1.666,5.333,3.334,8,5    c-0.333-3.666-0.667-7.334-1-11c2.333,2.333,4.667,4.667,7,7c0.667-0.333,1.333-0.666,2-1c0.333-3.333,0.667-6.667,1-10    c1.587,3.77,3.481,6.127,7,8c0.667-3,1.333-6,2-9c0.333,0.666,0.667,1.334,1,2c1.333,2.333,2.667,4.667,4,7c0.333,0,0.667,0,1,0    C60.489,760.924,61.488,757.59,62.488,754.257z"
   fill="#434E52" />
		<g
   id="g100">
			<path
   id="path70"
   d="M33.341,835.979v-21.414c0-2.5,1.875-4.526,4.175-4.526l52.22-7.103c2.302,0,4.17,2.011,4.17,4.511     l-1.854,28.533L33.341,835.979L33.341,835.979z"
   fill="#C5C9C7" />
			<path
   id="path72"
   d="M91.852,836.015v-43.838l-13.348-13.348H35.601c-2.374,0-4.298,1.924-4.298,4.298v52.888H91.852     L91.852,836.015z"
   fill="#E3E5E4" />
			<rect
   id="rect74"
   height="5.858"
   width="44.354"
   fill="#F67876"
   y="784.513"
   x="36.409" />
			<path
   id="path76"
   d="M82.672,792.097h9.18l-13.27-13.268v9.18C78.583,790.417,80.266,792.097,82.672,792.097z"
   fill="#F0F0F0" />
			<rect
   id="rect78"
   height="19.246"
   width="17.435"
   fill="#63BCB8"
   y="795.813"
   x="36.409" />
			<rect
   id="rect80"
   height="3.485"
   width="29.43"
   fill="#ABB7B7"
   y="795.813"
   x="57.75" />
			<rect
   id="rect82"
   height="3.626"
   width="29.43"
   fill="#ABB7B7"
   y="800.972"
   x="57.75" />
			<rect
   id="rect84"
   height="3.486"
   width="29.43"
   fill="#ABB7B7"
   y="806.271"
   x="57.75" />
			<rect
   id="rect86"
   height="3.626"
   width="17.854"
   fill="#ABB7B7"
   y="811.433"
   x="57.75" />
			<path
   id="path88"
   d="M52.606,804.285c0-2.245-1.206-4.231-3.006-5.3l-3.093,5.334h6.097     C52.604,804.319,52.606,804.313,52.606,804.285z"
   fill="#E3E5E4" />
			<path
   id="path90"
   d="M44.382,805.714l3.093-5.354c-0.916-0.543-1.983-0.854-3.125-0.854c-3.386,0-6.132,2.747-6.132,6.134     s2.746,6.128,6.132,6.128c3.359,0,6.086-2.706,6.13-6.054H44.382L44.382,805.714z"
   fill="#E3E5E4" />
			<rect
   id="rect92"
   height="3.487"
   width="50.771"
   fill="#939999"
   y="817.709"
   x="36.409" />
			<rect
   id="rect94"
   height="3.626"
   width="27.198"
   fill="#ABB7B7"
   y="822.869"
   x="36.409" />
			<rect
   id="rect96"
   height="3.486"
   width="27.198"
   fill="#ABB7B7"
   y="828.17"
   x="36.409" />
			<rect
   id="rect98"
   height="2.647"
   width="50.771"
   fill="#ABB7B7"
   y="833.331"
   x="36.409" />
		</g>
	</g>
	<g
   id="Activité_d_x27_auto-évaluation">
		<path
   id="path103"
   d="M62.488,379.94c2.13,2.406,3.408,10.181,6,9c1.334-2.666,2.668-5.334,4-8c0.334,0,0.666,0,1,0    c0.334,3.666,0.666,7.334,1,11c3-2.333,6-4.667,9-7c-0.334,3.333-0.666,6.667-1,10c3-2,6-4,9-6c-0.666,3.666-1.334,7.334-2,11    c3.334-1.666,6.668-3.334,10-5c-1.332,3.333-2.666,6.667-4,10c3.334-0.666,6.668-1.334,10-2c0,0.334,0,0.667,0,1    c-1.666,2.666-3.334,5.334-5,8c3.666-0.333,7.334-0.666,11-1c-2.332,2.666-4.666,5.334-7,8c0.666,0,1.334,0,2,0    c2.666,0.334,5.334,0.667,8,1c-2.666,2-5.334,4-8,6c0.334,0.666,0.666,1.334,1,2c3,0.666,6,1.334,9,2c0,0.334,0,0.667,0,1    c-3,1.333-6,2.667-9,4c0,0.334,0,0.667,0,1c2.666,1.333,5.334,2.667,8,4c0,0.334,0,0.667,0,1c-3,0.666-6,1.334-9,2    c0.334,0.666,0.666,1.334,1,2c2.334,1.666,4.668,3.334,7,5c-3.332,0.334-6.666,0.667-10,1c2.334,2.666,4.668,5.334,7,8    c-3.666,0-7.334,0-11,0c1.666,2.666,3.334,5.334,5,8c-3.332-0.666-6.666-1.334-10-2c1.334,3.333,2.668,6.667,4,10    c-3.332-1.333-6.666-2.667-10-4c0.666,3.333,1.334,6.667,2,10c-3-2-6-4-9-6c0,3.333,0,6.667,0,10c-2.666-2.333-5.334-4.667-8-7    c-0.334,3.666-0.666,7.334-1,11c-0.666-0.333-1.334-0.666-2-1c-1.666-2.666-3.334-5.334-5-8c0,0.666,0,1.334,0,2    c-1,2.666-2,5.334-3,8c-0.334,0-0.666,0-1,0c-1.332-3-2.667-6-4-9c-0.333,0-0.667,0-1,0c-1.333,2.666-2.667,5.334-4,8    c-0.333,0-0.667,0-1,0c-0.667-3.333-1.333-6.667-2-10c-0.667,0.334-1.333,0.667-2,1c-1.497,3.633-2.642,5.188-6,7    c0-3.333,0-6.667,0-10c-2.999,2-6.001,4-9,6c0.667-3.666,1.333-7.334,2-11c-3.333,2-6.667,4-10,6c1-3,2-6,3-9    c-3.333,0.666-6.667,1.334-10,2c1.667-3.333,3.333-6.667,5-10c-3.667,0.666-7.333,1.334-11,2c0.667-0.666,1.333-1.334,2-2    c1.667-2.333,3.333-4.667,5-7c-3.667,0-7.333,0-11,0c1-1.333,2-2.667,3-4c1.667-1.333,3.333-2.667,5-4    c-3.667-0.333-7.333-0.666-11-1c0.333-0.666,0.667-1.334,1-2c2.667-1.666,5.333-3.334,8-5c-3.333-1.333-6.667-2.667-10-4    c3.333-1,6.667-2,10-3c-2.999-2.333-6.001-4.667-9-7c3.667-0.333,7.333-0.666,11-1c-1.333-1.666-2.667-3.334-4-5    c-1.333-1-2.667-2-4-3c3.667,0,7.333,0,11,0c-1-1-2-2-3-3c-1.333-2-2.667-4-4-6c3.667,0.666,7.333,1.334,11,2    c-1.667-3.333-3.333-6.667-5-10c3.667,1.333,7.333,2.667,11,4c-0.667-3.333-1.333-6.667-2-10c2.667,1.666,5.333,3.334,8,5    c-0.333-3.666-0.667-7.334-1-11c2.333,2.333,4.667,4.667,7,7c0.667-0.333,1.333-0.666,2-1c0.333-3.333,0.667-6.667,1-10    c1.587,3.769,3.481,6.127,7,8c0.667-3,1.333-6,2-9c0.333,0.666,0.667,1.334,1,2c1.333,2.333,2.667,4.667,4,7c0.333,0,0.667,0,1,0    C60.489,386.607,61.488,383.273,62.488,379.94z"
   fill="#434E52" />
		<g
   id="g123">
			<circle
   id="circle105"
   r="25.51"
   cy="435.035"
   cx="61.167"
   fill="#F4F4F4" />
			<circle
   id="circle107"
   r="6.239"
   cy="435.964"
   cx="61.718"
   enable-background="new    "
   opacity="0.1" />
			<path
   id="path109"
   d="M59.299,431.501L48.468,420.67c-0.591-0.591-1.548-0.591-2.14,0c-0.591,0.591-0.591,1.548,0,2.14     l10.831,10.831L59.299,431.501z"
   fill="#4A8D8A" />
			<path
   id="path111"
   d="M66.16,436.351l10.762-2.713c1.087-0.273,1.758-1.335,1.482-2.423c-0.274-1.087-1.366-1.703-2.454-1.429     L65.189,432.5L66.16,436.351z"
   fill="#4A8D8A" />
			<circle
   id="circle113"
   r="2.552"
   cy="435.036"
   cx="61.167"
   fill="#F67876" />
			<path
   id="path115"
   d="M37.073,437.264c0-14.779,11.865-26.763,26.503-26.763     c6.643,0,12.714,2.469,17.365,6.545c-4.881-5.32-11.881-8.654-19.658-8.654c-14.752,0-26.71,11.994-26.71,26.791     c0,8.794,4.223,16.599,10.746,21.481C40.241,451.788,37.073,444.9,37.073,437.264z"
   enable-background="new    "
   fill="#434E52"
   opacity="0.1" />
			<path
   id="path117"
   d="M61.167,400.639c-18.945,0-34.303,15.356-34.303,34.302c0,18.943,15.358,34.302,34.303,34.302     c18.944,0,34.302-15.357,34.302-34.302C95.469,415.995,80.111,400.639,61.167,400.639z M61.167,460.45     c-14.089,0-25.51-11.421-25.51-25.51c0-14.089,11.42-25.51,25.51-25.51c14.088,0,25.511,11.421,25.511,25.51     C86.678,449.029,75.255,460.45,61.167,460.45z"
   fill="#4A8D8A" />
			<circle
   id="circle119"
   r="4.805"
   cy="435.036"
   cx="61.167"
   stroke-miterlimit="10"
   stroke-width="10"
   stroke="#3B556C"
   fill="none" />
			<path
   id="path121"
   d="M42.948,446.383l18.302-12.68l1.293,1.864L44.241,448.25c-0.516,0.356-1.222,0.228-1.579-0.287     C42.305,447.446,42.433,446.741,42.948,446.383z"
   fill="#F67876" />
		</g>
	</g>
	<g
   id="Objectif">
		<path
   id="path126"
   d="M66.316,1003.802c2.129,2.406,3.406,10.182,6,9c1.332-2.666,2.666-5.334,4-8c0.334,0,0.666,0,1,0    c0.334,3.666,0.666,7.334,1,11c3-2.333,6-4.667,9-7c-0.334,3.333-0.666,6.667-1,10c3-2,6-4,9-6c-0.666,3.666-1.334,7.334-2,11    c3.332-1.666,6.666-3.334,10-5c-1.334,3.333-2.668,6.667-4,10c3.332-0.666,6.666-1.334,10-2c0,0.334,0,0.667,0,1    c-1.666,2.666-3.334,5.334-5,8c3.666-0.333,7.334-0.666,11-1c-2.334,2.666-4.668,5.334-7,8c0.666,0,1.334,0,2,0    c2.666,0.334,5.334,0.667,8,1c-2.666,2-5.334,4-8,6c0.334,0.666,0.666,1.334,1,2c3,0.666,6,1.334,9,2c0,0.334,0,0.667,0,1    c-3,1.333-6,2.667-9,4c0,0.334,0,0.667,0,1c2.666,1.333,5.334,2.667,8,4c0,0.334,0,0.667,0,1c-3,0.666-6,1.334-9,2    c0.334,0.666,0.666,1.334,1,2c2.332,1.666,4.666,3.334,7,5c-3.334,0.334-6.668,0.667-10,1c2.332,2.666,4.666,5.334,7,8    c-3.666,0-7.334,0-11,0c1.666,2.666,3.334,5.334,5,8c-3.334-0.666-6.668-1.334-10-2c1.332,3.333,2.666,6.667,4,10    c-3.334-1.333-6.668-2.667-10-4c0.666,3.333,1.334,6.667,2,10c-3-2-6-4-9-6c0,3.333,0,6.667,0,10c-2.666-2.333-5.334-4.667-8-7    c-0.334,3.666-0.666,7.334-1,11c-0.666-0.333-1.334-0.666-2-1c-1.666-2.666-3.334-5.334-5-8c0,0.666,0,1.334,0,2    c-1,2.666-2,5.334-3,8c-0.334,0-0.668,0-1,0c-1.334-3-2.668-6-4-9c-0.334,0-0.668,0-1,0c-1.333,2.666-2.667,5.334-4,8    c-0.333,0-0.667,0-1,0c-0.667-3.333-1.333-6.667-2-10c-0.667,0.334-1.333,0.667-2,1c-1.497,3.634-2.642,5.188-6,7    c0-3.333,0-6.667,0-10c-2.999,2-6.001,4-9,6c0.667-3.666,1.333-7.334,2-11c-3.333,2-6.667,4-10,6c1-3,2-6,3-9    c-3.333,0.666-6.667,1.334-10,2c1.667-3.333,3.333-6.667,5-10c-3.667,0.666-7.333,1.334-11,2c0.667-0.666,1.333-1.334,2-2    c1.667-2.333,3.333-4.667,5-7c-3.667,0-7.333,0-11,0c1-1.333,2-2.667,3-4c1.667-1.333,3.333-2.667,5-4    c-3.667-0.333-7.333-0.666-11-1c0.333-0.666,0.667-1.334,1-2c2.667-1.666,5.333-3.334,8-5c-3.333-1.333-6.667-2.667-10-4    c3.333-1,6.667-2,10-3c-2.999-2.333-6.001-4.667-9-7c3.667-0.333,7.333-0.666,11-1c-1.333-1.666-2.667-3.334-4-5    c-1.333-1-2.667-2-4-3c3.667,0,7.333,0,11,0c-1-1-2-2-3-3c-1.333-2-2.667-4-4-6c3.667,0.666,7.333,1.334,11,2    c-1.667-3.333-3.333-6.667-5-10c3.667,1.333,7.333,2.667,11,4c-0.667-3.333-1.333-6.667-2-10c2.667,1.666,5.333,3.334,8,5    c-0.333-3.666-0.667-7.334-1-11c2.333,2.333,4.667,4.667,7,7c0.667-0.333,1.333-0.666,2-1c0.333-3.333,0.667-6.667,1-10    c1.587,3.77,3.481,6.127,7,8c0.667-3,1.333-6,2-9c0.333,0.666,0.667,1.334,1,2c1.333,2.333,2.667,4.667,4,7c0.332,0,0.666,0,1,0    C64.316,1010.469,65.316,1007.135,66.316,1003.802z"
   fill="#434E52" />
		<circle
   id="circle128"
   r="25.51"
   cy="1058.896"
   cx="64.994"
   fill="#F4F4F4" />
		<circle
   id="circle130"
   r="6.239"
   cy="1059.826"
   cx="65.545"
   enable-background="new    "
   opacity="0.1" />
		<circle
   id="circle132"
   r="2.552"
   cy="1058.897"
   cx="64.994"
   fill="#F67876" />
		<path
   id="path134"
   d="M64.994,1024.5c-18.945,0-34.303,15.355-34.303,34.302c0,18.944,15.358,34.302,34.303,34.302    s34.302-15.356,34.302-34.302C99.296,1039.855,83.939,1024.5,64.994,1024.5z M64.994,1084.313    c-14.089,0-25.51-11.422-25.51-25.511s11.42-25.51,25.51-25.51c14.088,0,25.51,11.421,25.51,25.51    S79.083,1084.313,64.994,1084.313z"
   fill="#4A8D8A" />
		<path
   id="path136"
   d="M64.995,1038.25c-11.351,0-20.553,9.2-20.553,20.552s9.202,20.552,20.553,20.552    c11.351,0,20.552-9.2,20.552-20.552C85.546,1047.45,76.346,1038.25,64.995,1038.25z M64.995,1074.086    c-8.442,0-15.284-6.843-15.284-15.284c0-8.44,6.842-15.284,15.284-15.284c8.44,0,15.284,6.844,15.284,15.284    C80.279,1067.243,73.436,1074.086,64.995,1074.086z"
   fill="#4A8D8A" />
		<circle
   id="circle138"
   r="4.805"
   cy="1058.897"
   cx="64.994"
   stroke-miterlimit="10"
   stroke-width="10"
   stroke="#3B556C"
   fill="none" />
	</g>
	<g
   id="Exercice_rédactionnel">
		<path
   id="path141"
   d="M62.488,504.713c2.13,2.406,3.408,10.18,6,9c1.334-2.666,2.668-5.334,4-8c0.334,0,0.666,0,1,0    c0.334,3.666,0.666,7.334,1,11c3-2.334,6-4.668,9-7c-0.334,3.332-0.666,6.666-1,10c3-2,6-4,9-6c-0.666,3.666-1.334,7.334-2,11    c3.334-1.666,6.668-3.334,10-5c-1.332,3.332-2.666,6.666-4,10c3.334-0.666,6.668-1.334,10-2c0,0.334,0,0.666,0,1    c-1.666,2.666-3.334,5.334-5,8c3.666-0.334,7.334-0.666,11-1c-2.332,2.666-4.666,5.334-7,8c0.666,0,1.334,0,2,0    c2.666,0.334,5.334,0.666,8,1c-2.666,2-5.334,4-8,6c0.334,0.666,0.666,1.334,1,2c3,0.666,6,1.334,9,2c0,0.334,0,0.666,0,1    c-3,1.332-6,2.666-9,4c0,0.334,0,0.666,0,1c2.666,1.332,5.334,2.666,8,4c0,0.334,0,0.666,0,1c-3,0.666-6,1.334-9,2    c0.334,0.666,0.666,1.334,1,2c2.334,1.666,4.668,3.334,7,5c-3.332,0.334-6.666,0.666-10,1c2.334,2.666,4.668,5.334,7,8    c-3.666,0-7.334,0-11,0c1.666,2.666,3.334,5.334,5,8c-3.332-0.666-6.666-1.334-10-2c1.334,3.332,2.668,6.666,4,10    c-3.332-1.334-6.666-2.668-10-4c0.666,3.332,1.334,6.666,2,10c-3-2-6-4-9-6c0,3.332,0,6.666,0,10c-2.666-2.334-5.334-4.668-8-7    c-0.334,3.666-0.666,7.334-1,11c-0.666-0.334-1.334-0.666-2-1c-1.666-2.666-3.334-5.334-5-8c0,0.666,0,1.334,0,2    c-1,2.666-2,5.334-3,8c-0.334,0-0.666,0-1,0c-1.332-3-2.667-6-4-9c-0.333,0-0.667,0-1,0c-1.333,2.666-2.667,5.334-4,8    c-0.333,0-0.667,0-1,0c-0.667-3.334-1.333-6.668-2-10c-0.667,0.334-1.333,0.666-2,1c-1.497,3.633-2.642,5.188-6,7    c0-3.334,0-6.668,0-10c-2.999,2-6.001,4-9,6c0.667-3.666,1.333-7.334,2-11c-3.333,2-6.667,4-10,6c1-3,2-6,3-9    c-3.333,0.666-6.667,1.334-10,2c1.667-3.334,3.333-6.668,5-10c-3.667,0.666-7.333,1.334-11,2c0.667-0.666,1.333-1.334,2-2    c1.667-2.334,3.333-4.668,5-7c-3.667,0-7.333,0-11,0c1-1.334,2-2.668,3-4c1.667-1.334,3.333-2.668,5-4    c-3.667-0.334-7.333-0.666-11-1c0.333-0.666,0.667-1.334,1-2c2.667-1.666,5.333-3.334,8-5c-3.333-1.334-6.667-2.668-10-4    c3.333-1,6.667-2,10-3c-2.999-2.334-6.001-4.668-9-7c3.667-0.334,7.333-0.666,11-1c-1.333-1.666-2.667-3.334-4-5    c-1.333-1-2.667-2-4-3c3.667,0,7.333,0,11,0c-1-1-2-2-3-3c-1.333-2-2.667-4-4-6c3.667,0.666,7.333,1.334,11,2    c-1.667-3.334-3.333-6.668-5-10c3.667,1.332,7.333,2.666,11,4c-0.667-3.334-1.333-6.668-2-10c2.667,1.666,5.333,3.334,8,5    c-0.333-3.666-0.667-7.334-1-11c2.333,2.332,4.667,4.666,7,7c0.667-0.334,1.333-0.666,2-1c0.333-3.334,0.667-6.668,1-10    c1.587,3.769,3.481,6.127,7,8c0.667-3,1.333-6,2-9c0.333,0.666,0.667,1.334,1,2c1.333,2.332,2.667,4.666,4,7c0.333,0,0.667,0,1,0    C60.489,511.379,61.488,508.045,62.488,504.713z"
   fill="#434E52" />
		<g
   id="g193">
			<g
   id="g145">
				<path
   id="path143"
   d="M76.541,536.588c0.988,0,1.801,0.813,1.801,1.803v51.646      c0,0.988-0.813,1.801-1.801,1.801H30.965c-0.99,0-1.801-0.813-1.801-1.801v-58.762c0-0.992,0.811-1.804,1.801-1.804h38.207      c0.99,0,1.801,0.812,1.801,1.804v3.512c0,0.99,0.812,1.801,1.801,1.801H76.541z"
   stroke-miterlimit="10"
   stroke="#231F20"
   fill="#E0E2E0" />
			</g>
			<rect
   id="rect147"
   height="12.248"
   width="12.249"
   fill="#4A8D8A"
   y="534.994"
   x="35.288" />
			<rect
   id="rect149"
   height="1.514"
   width="17.938"
   fill="#F67876"
   y="535.07"
   x="49.644" />
			<rect
   id="rect151"
   height="1.515"
   width="21.392"
   fill="#F67876"
   y="539.141"
   x="49.661" />
			<rect
   id="rect153"
   height="1.515"
   width="21.392"
   fill="#F67876"
   y="542.688"
   x="49.661" />
			<rect
   id="rect155"
   height="1.69"
   width="21.464"
   fill="#F67876"
   y="545.902"
   x="49.813" />
			<rect
   id="rect157"
   height="1.69"
   width="39.179"
   fill="#231F20"
   y="556.41"
   x="34.35" />
			<rect
   id="rect159"
   height="1.691"
   width="39.179"
   fill="#231F20"
   y="560.463"
   x="34.501" />
			<rect
   id="rect161"
   height="1.691"
   width="39.179"
   fill="#231F20"
   y="564.516"
   x="34.501" />
			<rect
   id="rect163"
   height="1.688"
   width="39.179"
   fill="#231F20"
   y="584.031"
   x="34.652" />
			<polygon
   id="polygon165"
   points="63.75,568.09 60.401,568.842 57.333,573.805 57.333,578.174 62.525,579.09 67.572,576.008      68.365,571.674 67.093,569.531 63.832,568.424    "
   fill="#FFFFFF" />
			<polygon
   id="polygon167"
   points="83.631,547.242 65.62,565.361 71.053,571.596 90.037,552.18 101.204,540.654 95.529,535.07         "
   fill="#4A8D8A" />
			<path
   id="path169"
   d="M78.465,536.496c0.594,0.576,0.799,1.328,0.461,1.682l0,0c-0.338,0.351-1.098,0.164-1.691-0.41     l-7.068-6.858c-0.596-0.576-0.803-1.328-0.462-1.678l0,0c0.339-0.353,1.099-0.169,1.692,0.407L78.465,536.496z"
   fill="#231F20" />
			<g
   id="g173">
				<path
   id="path171"
   d="M55.577,580.77v-1.004c0-0.303,0.043-7.481,3.791-11.192c1.129-1.119,2.623-1.734,4.207-1.734s3.073,0.617,4.194,1.736      c1.125,1.125,1.742,2.621,1.742,4.211c-0.003,1.586-0.621,3.076-1.744,4.192c-3.732,3.722-10.886,3.787-11.188,3.787      L55.577,580.77z M63.575,568.838c-1.054,0-2.048,0.41-2.8,1.154c-2.389,2.365-2.993,6.719-3.146,8.719      c1.998-0.158,6.344-0.773,8.729-3.148c0.742-0.737,1.152-1.727,1.154-2.776c0-1.058-0.41-2.049-1.156-2.795      C65.613,569.246,64.625,568.838,63.575,568.838z" />
			</g>
			<g
   id="g177">
				<path
   id="path175"
   d="M56.577,580.766c-0.256,0-0.513-0.098-0.707-0.293c-0.392-0.391-0.392-1.022,0-1.414l5.657-5.655      c0.391-0.392,1.022-0.392,1.414,0c0.391,0.391,0.391,1.022,0,1.414l-5.657,5.655C57.09,580.668,56.833,580.766,56.577,580.766z" />
			</g>
			<g
   id="g181">
				<path
   id="path179"
   d="M70.488,572.512L70.488,572.512c-0.266,0-0.521-0.104-0.707-0.293l-5.655-5.658c-0.392-0.391-0.392-1.021,0-1.414      l31.11-31.11c0.188-0.188,0.441-0.293,0.707-0.293l0,0c0.266,0,0.521,0.104,0.707,0.293l5.656,5.658      c0.391,0.391,0.391,1.021,0,1.411l-31.111,31.113C71.008,572.406,70.753,572.512,70.488,572.512z M66.246,565.854l4.24,4.244      l29.699-29.698l-4.242-4.242L66.246,565.854z" />
			</g>
			<g
   id="g185">
				<path
   id="path183"
   d="M77.559,548.471c-0.256,0-0.512-0.098-0.707-0.293c-0.391-0.391-0.391-1.022,0-1.414l11.313-11.313      c1.948-1.949,5.123-1.949,7.071,0c0.392,0.391,0.392,1.022,0,1.414c-0.391,0.391-1.022,0.391-1.414,0      c-1.17-1.17-3.074-1.17-4.243,0l-11.313,11.313C78.07,548.373,77.814,548.471,77.559,548.471z" />
			</g>
			<g
   id="g189">
				<path
   id="path187"
   d="M90.287,552.715c-0.256,0-0.512-0.1-0.707-0.295l-5.655-5.656c-0.392-0.391-0.392-1.022,0-1.414      c0.392-0.391,1.022-0.391,1.414,0l5.655,5.656c0.393,0.392,0.393,1.023,0,1.414C90.8,552.615,90.543,552.715,90.287,552.715z" />
			</g>
			<path
   id="path191"
   d="M71.277,531.988l4.129,4.006c0,0-3.203,0.317-3.62-0.166C71.369,535.344,71.277,531.988,71.277,531.988z"
   fill="#E0E2E0" />
		</g>
	</g>
	<g
   id="Exercice">
		<path
   id="path196"
   d="M62.488,255.168c2.13,2.406,3.408,10.181,6,9c1.334-2.666,2.668-5.334,4-8c0.334,0,0.666,0,1,0    c0.334,3.666,0.666,7.334,1,11c3-2.333,6-4.667,9-7c-0.334,3.333-0.666,6.667-1,10c3-2,6-4,9-6c-0.666,3.666-1.334,7.334-2,11    c3.334-1.666,6.668-3.334,10-5c-1.332,3.333-2.666,6.667-4,10c3.334-0.666,6.668-1.334,10-2c0,0.334,0,0.667,0,1    c-1.666,2.666-3.334,5.334-5,8c3.666-0.333,7.334-0.666,11-1c-2.332,2.666-4.666,5.334-7,8c0.666,0,1.334,0,2,0    c2.666,0.334,5.334,0.667,8,1c-2.666,2-5.334,4-8,6c0.334,0.666,0.666,1.334,1,2c3,0.666,6,1.334,9,2c0,0.334,0,0.667,0,1    c-3,1.333-6,2.667-9,4c0,0.334,0,0.667,0,1c2.666,1.333,5.334,2.667,8,4c0,0.334,0,0.667,0,1c-3,0.666-6,1.334-9,2    c0.334,0.666,0.666,1.334,1,2c2.334,1.666,4.668,3.334,7,5c-3.332,0.334-6.666,0.667-10,1c2.334,2.666,4.668,5.334,7,8    c-3.666,0-7.334,0-11,0c1.666,2.666,3.334,5.334,5,8c-3.332-0.666-6.666-1.334-10-2c1.334,3.333,2.668,6.667,4,10    c-3.332-1.333-6.666-2.667-10-4c0.666,3.333,1.334,6.667,2,10c-3-2-6-4-9-6c0,3.333,0,6.667,0,10c-2.666-2.333-5.334-4.667-8-7    c-0.334,3.666-0.666,7.334-1,11c-0.666-0.333-1.334-0.666-2-1c-1.666-2.666-3.334-5.334-5-8c0,0.666,0,1.334,0,2    c-1,2.666-2,5.334-3,8c-0.334,0-0.666,0-1,0c-1.332-3-2.667-6-4-9c-0.333,0-0.667,0-1,0c-1.333,2.666-2.667,5.334-4,8    c-0.333,0-0.667,0-1,0c-0.667-3.333-1.333-6.667-2-10c-0.667,0.334-1.333,0.667-2,1c-1.497,3.633-2.642,5.188-6,7    c0-3.333,0-6.667,0-10c-2.999,2-6.001,4-9,6c0.667-3.666,1.333-7.334,2-11c-3.333,2-6.667,4-10,6c1-3,2-6,3-9    c-3.333,0.666-6.667,1.334-10,2c1.667-3.333,3.333-6.667,5-10c-3.667,0.666-7.333,1.334-11,2c0.667-0.666,1.333-1.334,2-2    c1.667-2.333,3.333-4.667,5-7c-3.667,0-7.333,0-11,0c1-1.333,2-2.667,3-4c1.667-1.333,3.333-2.667,5-4    c-3.667-0.333-7.333-0.666-11-1c0.333-0.666,0.667-1.334,1-2c2.667-1.666,5.333-3.334,8-5c-3.333-1.333-6.667-2.667-10-4    c3.333-1,6.667-2,10-3c-2.999-2.333-6.001-4.667-9-7c3.667-0.333,7.333-0.666,11-1c-1.333-1.666-2.667-3.334-4-5    c-1.333-1-2.667-2-4-3c3.667,0,7.333,0,11,0c-1-1-2-2-3-3c-1.333-2-2.667-4-4-6c3.667,0.666,7.333,1.334,11,2    c-1.667-3.333-3.333-6.667-5-10c3.667,1.333,7.333,2.667,11,4c-0.667-3.333-1.333-6.667-2-10c2.667,1.666,5.333,3.334,8,5    c-0.333-3.666-0.667-7.334-1-11c2.333,2.333,4.667,4.667,7,7c0.667-0.333,1.333-0.666,2-1c0.333-3.333,0.667-6.667,1-10    c1.587,3.769,3.481,6.127,7,8c0.667-3,1.333-6,2-9c0.333,0.666,0.667,1.334,1,2c1.333,2.333,2.667,4.667,4,7c0.333,0,0.667,0,1,0    C60.489,261.835,61.488,258.501,62.488,255.168z"
   fill="#434E52" />
		<path
   d="M47.658,281.206c0-1.297,1.04-2.331,2.322-2.331h4.676l0,0v-2.337    c0-2.565,2.093-4.661,4.677-4.661h2.31c2.59,0,4.678,2.087,4.678,4.661v2.337h4.675c1.284,0,2.323,1.044,2.323,2.331v2.337    c0,1.297-1.039,2.331-2.323,2.331H49.98c-1.285,0-2.322-1.043-2.322-2.331V281.206 M75.652,281.208h2.338    c2.582,0,4.66,2.092,4.66,4.675v48.972c0,2.6-2.086,4.675-4.66,4.675H42.987c-2.582,0-4.66-2.092-4.66-4.675v-48.972    c0-2.599,2.085-4.675,4.66-4.675h2.338c0,0.005,0,0.01,0,0.012v2.31c0,2.584,2.084,4.678,4.672,4.678h20.981    c2.582,0,4.672-2.087,4.672-4.678v-2.31C75.652,281.218,75.652,281.213,75.652,281.208L75.652,281.208L75.652,281.208z     M60.489,278.875c0.645,0,1.166-0.523,1.166-1.166s-0.521-1.167-1.166-1.167c-0.645,0-1.167,0.524-1.167,1.167    S59.844,278.875,60.489,278.875L60.489,278.875z M56.989,299.871v2.333h18.664v-2.333H56.989L56.989,299.871z M45.325,297.538    v6.998h6.999v-6.998H45.325L45.325,297.538z M47.658,299.871v2.333h2.333v-2.333H47.658L47.658,299.871z M45.325,309.202v6.998    h6.999v-6.998H45.325L45.325,309.202z M47.658,311.535v2.333h2.333v-2.333H47.658L47.658,311.535z M56.989,311.535v2.333h18.664    v-2.333H56.989L56.989,311.535z M45.325,320.866v6.999h6.999v-6.999H45.325L45.325,320.866z M47.658,323.199v2.333h2.333v-2.333    H47.658L47.658,323.199z M56.989,323.199v2.333h18.664v-2.333H56.989L56.989,323.199z"
   fill="#E0E2E0"
   id="clipboard-list" />
		<path
   id="path199"
   d="M49.98,285.874h21.015c1.284,0,2.323-1.034,2.323-2.331v-2.337c0-1.287-1.039-2.331-2.323-2.331H66.32    v-2.337c0-2.574-2.088-4.661-4.678-4.661h-2.31c-2.583,0-4.677,2.096-4.677,4.661v2.337H49.98c-1.283,0-2.322,1.034-2.322,2.331    v2.337C47.658,284.831,48.696,285.874,49.98,285.874z M60.489,276.542c0.645,0,1.166,0.524,1.166,1.167s-0.521,1.166-1.166,1.166    c-0.645,0-1.167-0.523-1.167-1.166S59.844,276.542,60.489,276.542z"
   fill="#F67876" />
		<path
   id="path201"
   d="M54.534,294.416c-0.146-0.146-0.383-0.146-0.528,0l-5.557,5.531c-0.145,0.146-0.383,0.146-0.528,0    l-2.435-2.479c-0.072-0.073-0.166-0.109-0.262-0.109c-0.096-0.002-0.193,0.034-0.266,0.109l-1.076,0.968    c-0.072,0.072-0.11,0.165-0.11,0.261c0,0.098,0.039,0.197,0.111,0.271l2.455,2.576c0.146,0.148,0.384,0.385,0.528,0.531    l1.056,1.064c0.146,0.146,0.382,0.146,0.528,0l7.139-7.127c0.146-0.146,0.146-0.386,0-0.531L54.534,294.416z"
   fill="#4A8D8A" />
	</g>
	<g
   id="Introduction">
		<path
   id="path204"
   d="M64.544,130.396c2.129,2.406,3.407,10.181,6,9c1.333-2.666,2.667-5.334,4-8c0.334,0,0.666,0,1,0    c0.334,3.666,0.666,7.334,1,11c3-2.333,6-4.667,9-7c-0.334,3.333-0.666,6.667-1,10c3-2,6-4,9-6c-0.666,3.666-1.334,7.334-2,11    c3.333-1.666,6.667-3.334,10-5c-1.333,3.333-2.667,6.667-4,10c3.333-0.666,6.667-1.334,10-2c0,0.334,0,0.667,0,1    c-1.666,2.666-3.334,5.334-5,8c3.666-0.333,7.334-0.666,11-1c-2.333,2.666-4.667,5.334-7,8c0.666,0,1.334,0,2,0    c2.666,0.334,5.334,0.667,8,1c-2.666,2-5.334,4-8,6c0.334,0.666,0.666,1.334,1,2c3,0.666,6,1.334,9,2c0,0.334,0,0.667,0,1    c-3,1.333-6,2.667-9,4c0,0.334,0,0.667,0,1c2.666,1.333,5.334,2.667,8,4c0,0.334,0,0.667,0,1c-3,0.666-6,1.334-9,2    c0.334,0.666,0.666,1.334,1,2c2.333,1.666,4.667,3.334,7,5c-3.333,0.334-6.667,0.667-10,1c2.333,2.666,4.667,5.334,7,8    c-3.666,0-7.334,0-11,0c1.666,2.666,3.334,5.334,5,8c-3.333-0.666-6.667-1.334-10-2c1.333,3.333,2.667,6.667,4,10    c-3.333-1.333-6.667-2.667-10-4c0.666,3.333,1.334,6.667,2,10c-3-2-6-4-9-6c0,3.333,0,6.667,0,10c-2.666-2.333-5.334-4.667-8-7    c-0.334,3.666-0.666,7.334-1,11c-0.666-0.333-1.334-0.666-2-1c-1.666-2.666-3.334-5.334-5-8c0,0.666,0,1.334,0,2    c-1,2.666-2,5.334-3,8c-0.334,0-0.667,0-1,0c-1.333-3-2.667-6-4-9c-0.333,0-0.667,0-1,0c-1.333,2.666-2.667,5.334-4,8    c-0.333,0-0.667,0-1,0c-0.667-3.333-1.333-6.667-2-10c-0.667,0.334-1.333,0.667-2,1c-1.497,3.633-2.642,5.188-6,7    c0-3.333,0-6.667,0-10c-2.999,2-6.001,4-9,6c0.667-3.666,1.333-7.334,2-11c-3.333,2-6.667,4-10,6c1-3,2-6,3-9    c-3.333,0.666-6.667,1.334-10,2c1.667-3.333,3.333-6.667,5-10c-3.667,0.666-7.333,1.334-11,2c0.667-0.666,1.333-1.334,2-2    c1.667-2.333,3.333-4.667,5-7c-3.667,0-7.333,0-11,0c1-1.333,2-2.667,3-4c1.667-1.333,3.333-2.667,5-4    c-3.667-0.333-7.333-0.666-11-1c0.333-0.666,0.667-1.334,1-2c2.667-1.666,5.333-3.334,8-5c-3.333-1.333-6.667-2.667-10-4    c3.333-1,6.667-2,10-3c-2.999-2.333-6.001-4.667-9-7c3.667-0.333,7.333-0.666,11-1c-1.333-1.666-2.667-3.334-4-5    c-1.333-1-2.667-2-4-3c3.667,0,7.333,0,11,0c-1-1-2-2-3-3c-1.333-2-2.667-4-4-6c3.667,0.666,7.333,1.334,11,2    c-1.667-3.333-3.333-6.667-5-10c3.667,1.333,7.333,2.667,11,4c-0.667-3.333-1.333-6.667-2-10c2.667,1.666,5.333,3.334,8,5    c-0.333-3.666-0.667-7.334-1-11c2.333,2.333,4.667,4.667,7,7c0.667-0.333,1.333-0.666,2-1c0.333-3.333,0.667-6.667,1-10    c1.587,3.769,3.481,6.127,7,8c0.667-3,1.333-6,2-9c0.333,0.666,0.667,1.334,1,2c1.333,2.333,2.667,4.667,4,7c0.333,0,0.667,0,1,0    C62.544,137.063,63.544,133.729,64.544,130.396z"
   fill="#434E52" />
		<path
   id="path206"
   d="M63.348,192.899c2.484,0.579,4.989-0.979,5.568-3.461l1.686-7.225c0.211-0.903,1.219-1.145,1.791-0.535    c1.196,0.994,2.619,2.04,3.748,2.304c3.159,0.737,6.223-1.167,6.961-4.327c0.736-3.161-1.168-6.223-4.328-6.961    c-1.127-0.264-2.867,0.045-4.379,0.406c-0.783,0.293-1.527-0.594-1.369-1.272l2.213-9.481c0.578-2.483-0.979-4.988-3.463-5.568    l-5.418-1.265c-1.354-0.315-2.799,0.775-2.664,2.235c0.188,1.234,0.15,2.416-0.008,3.092c-0.736,3.162-3.801,5.065-6.959,4.327    c-3.162-0.737-5.064-3.8-4.327-6.96c0.158-0.678,0.648-1.754,1.363-2.777c0.541-1.302-0.046-2.867-1.4-3.183l-5.418-1.265    c-2.484-0.58-4.99,0.979-5.569,3.462l-6.321,27.091c-0.58,2.482,0.979,4.988,3.462,5.568L63.348,192.899z"
   fill="#FFFFFF" />
		<path
   id="path208"
   d="M37.936,173.974c-2.548,0.102-4.55,2.268-4.45,4.816l0.292,7.412c0.036,0.927-0.872,1.426-1.585,0.991    c-1.416-0.641-3.066-1.271-4.224-1.226c-3.242,0.127-5.69,2.775-5.562,6.019c0.128,3.244,2.776,5.69,6.019,5.563    c1.158-0.047,2.753-0.806,4.115-1.555c0.677-0.491,1.631,0.167,1.658,0.862l0.382,9.729c0.101,2.549,2.269,4.551,4.816,4.45    l5.559-0.219c1.39-0.056,2.493-1.491,1.976-2.862c-0.509-1.14-0.787-2.289-0.813-2.984c-0.129-3.243,2.32-5.891,5.562-6.019    c3.244-0.128,5.891,2.319,6.02,5.563c0.027,0.695-0.159,1.862-0.577,3.04c-0.176,1.398,0.805,2.751,2.194,2.697l5.559-0.22    c2.549-0.101,4.551-2.267,4.452-4.815l-1.097-27.797c-0.1-2.548-2.268-4.55-4.815-4.449L37.936,173.974z"
   fill="#E0E2E0" />
		<path
   id="path210"
   d="M44.144,187.063c-2.218,1.259-3.003,4.103-1.746,6.32l3.659,6.453c0.458,0.808-0.121,1.668-0.954,1.608    c-1.552,0.079-3.308,0.276-4.316,0.848c-2.822,1.601-3.783,5.076-2.183,7.899c1.602,2.823,5.077,3.783,7.9,2.184    c1.008-0.572,2.077-1.978,2.944-3.269c0.376-0.747,1.526-0.599,1.869,0.006l4.802,8.47c1.259,2.219,4.103,3.004,6.32,1.746    l4.84-2.744c1.209-0.687,1.531-2.467,0.443-3.449c-0.975-0.779-1.75-1.674-2.092-2.278c-1.602-2.823-0.641-6.3,2.182-7.899    c2.824-1.602,6.299-0.641,7.9,2.183c0.342,0.604,0.712,1.728,0.881,2.965c0.485,1.323,1.979,2.076,3.188,1.39l4.839-2.744    c2.219-1.258,3.005-4.102,1.747-6.32l-13.722-24.198c-1.258-2.218-4.103-3.004-6.32-1.745L44.144,187.063z"
   fill="#4A8D8A" />
		<path
   id="path212"
   d="M81.257,161.645c-1.983-1.604-4.916-1.294-6.521,0.688l-4.666,5.768c-0.582,0.722-1.596,0.498-1.844-0.299    c-0.644-1.416-1.469-2.978-2.369-3.706c-2.522-2.041-6.109-1.662-8.15,0.86c-2.041,2.523-1.662,6.109,0.86,8.15    c0.901,0.729,2.601,1.21,4.119,1.543c0.834,0.077,1.117,1.201,0.68,1.742l-6.125,7.569c-1.604,1.983-1.293,4.917,0.689,6.521    l4.325,3.499c1.082,0.875,2.857,0.522,3.372-0.851c0.369-1.191,0.917-2.239,1.354-2.779c2.041-2.524,5.629-2.902,8.15-0.861    c2.523,2.042,2.902,5.627,0.861,8.15c-0.438,0.541-1.348,1.296-2.438,1.906c-1.054,0.936-1.207,2.6-0.127,3.475l4.325,3.499    c1.983,1.604,4.917,1.295,6.521-0.688l17.496-21.628c1.604-1.982,1.293-4.916-0.688-6.521L81.257,161.645z"
   fill="#F67876" />
	</g>
	<g
   id="Conclusion">
		<path
   id="path215"
   d="M62.488,629.484c2.13,2.405,3.408,10.181,6,9c1.334-2.666,2.668-5.334,4-8c0.334,0,0.666,0,1,0    c0.334,3.666,0.666,7.334,1,11c3-2.333,6-4.667,9-7c-0.334,3.333-0.666,6.667-1,10c3-2,6-4,9-6c-0.666,3.666-1.334,7.334-2,11    c3.334-1.666,6.668-3.334,10-5c-1.332,3.333-2.666,6.667-4,10c3.334-0.666,6.668-1.334,10-2c0,0.334,0,0.667,0,1    c-1.666,2.666-3.334,5.334-5,8c3.666-0.333,7.334-0.666,11-1c-2.332,2.666-4.666,5.334-7,8c0.666,0,1.334,0,2,0    c2.666,0.334,5.334,0.667,8,1c-2.666,2-5.334,4-8,6c0.334,0.666,0.666,1.334,1,2c3,0.666,6,1.334,9,2c0,0.334,0,0.667,0,1    c-3,1.333-6,2.667-9,4c0,0.334,0,0.667,0,1c2.666,1.333,5.334,2.667,8,4c0,0.334,0,0.667,0,1c-3,0.666-6,1.334-9,2    c0.334,0.666,0.666,1.334,1,2c2.334,1.666,4.668,3.334,7,5c-3.332,0.334-6.666,0.667-10,1c2.334,2.666,4.668,5.334,7,8    c-3.666,0-7.334,0-11,0c1.666,2.666,3.334,5.334,5,8c-3.332-0.666-6.666-1.334-10-2c1.334,3.333,2.668,6.667,4,10    c-3.332-1.333-6.666-2.667-10-4c0.666,3.333,1.334,6.667,2,10c-3-2-6-4-9-6c0,3.333,0,6.667,0,10c-2.666-2.333-5.334-4.667-8-7    c-0.334,3.666-0.666,7.334-1,11c-0.666-0.333-1.334-0.666-2-1c-1.666-2.666-3.334-5.334-5-8c0,0.666,0,1.334,0,2    c-1,2.666-2,5.334-3,8c-0.334,0-0.666,0-1,0c-1.332-3-2.667-6-4-9c-0.333,0-0.667,0-1,0c-1.333,2.666-2.667,5.334-4,8    c-0.333,0-0.667,0-1,0c-0.667-3.333-1.333-6.667-2-10c-0.667,0.334-1.333,0.667-2,1c-1.497,3.633-2.642,5.188-6,7    c0-3.333,0-6.667,0-10c-2.999,2-6.001,4-9,6c0.667-3.666,1.333-7.334,2-11c-3.333,2-6.667,4-10,6c1-3,2-6,3-9    c-3.333,0.666-6.667,1.334-10,2c1.667-3.333,3.333-6.667,5-10c-3.667,0.666-7.333,1.334-11,2c0.667-0.666,1.333-1.334,2-2    c1.667-2.333,3.333-4.667,5-7c-3.667,0-7.333,0-11,0c1-1.333,2-2.667,3-4c1.667-1.333,3.333-2.667,5-4    c-3.667-0.333-7.333-0.666-11-1c0.333-0.666,0.667-1.334,1-2c2.667-1.666,5.333-3.334,8-5c-3.333-1.333-6.667-2.667-10-4    c3.333-1,6.667-2,10-3c-2.999-2.333-6.001-4.667-9-7c3.667-0.333,7.333-0.666,11-1c-1.333-1.666-2.667-3.334-4-5    c-1.333-1-2.667-2-4-3c3.667,0,7.333,0,11,0c-1-1-2-2-3-3c-1.333-2-2.667-4-4-6c3.667,0.666,7.333,1.334,11,2    c-1.667-3.333-3.333-6.667-5-10c3.667,1.333,7.333,2.667,11,4c-0.667-3.333-1.333-6.667-2-10c2.667,1.666,5.333,3.334,8,5    c-0.333-3.666-0.667-7.334-1-11c2.333,2.333,4.667,4.667,7,7c0.667-0.333,1.333-0.666,2-1c0.333-3.333,0.667-6.667,1-10    c1.587,3.769,3.481,6.127,7,8c0.667-3,1.333-6,2-9c0.333,0.666,0.667,1.334,1,2c1.333,2.333,2.667,4.667,4,7c0.333,0,0.667,0,1,0    C60.489,636.151,61.488,632.817,62.488,629.484z"
   fill="#434E52" />
		<path
   id="path217"
   d="M87.988,697.044c0.507-2.035-0.742-4.114-2.777-4.622l-5.919-1.477c-0.739-0.186-0.925-1.018-0.417-1.479    c0.832-0.971,1.71-2.128,1.939-3.053c0.646-2.589-0.881-5.132-3.471-5.777s-5.132,0.882-5.777,3.472    c-0.23,0.925,0,2.357,0.279,3.605c0.231,0.647-0.508,1.249-1.063,1.11l-7.77-1.938c-2.035-0.507-4.115,0.743-4.623,2.777    l-1.107,4.439c-0.277,1.109,0.602,2.312,1.804,2.219c1.017-0.14,1.988-0.094,2.543,0.045c2.59,0.646,4.117,3.188,3.471,5.776    c-0.646,2.592-3.188,4.117-5.777,3.473c-0.555-0.14-1.434-0.556-2.267-1.155c-1.063-0.461-2.358,0.002-2.635,1.111l-1.107,4.438    c-0.508,2.035,0.742,4.115,2.776,4.623l22.198,5.536c2.035,0.508,4.115-0.742,4.622-2.777L87.988,697.044z"
   fill="#F67876" />
		<path
   id="path219"
   d="M48.579,712.871c2.035,0.507,4.115-0.742,4.623-2.777l1.476-5.919c0.185-0.74,1.017-0.926,1.479-0.417    c0.972,0.831,2.128,1.709,3.053,1.94c2.589,0.646,5.132-0.882,5.778-3.472c0.646-2.59-0.881-5.133-3.471-5.777    c-0.926-0.231-2.358,0.001-3.606,0.278c-0.647,0.231-1.249-0.508-1.11-1.063l1.938-7.769c0.507-2.034-0.742-4.115-2.777-4.623    l-4.439-1.107c-1.11-0.276-2.312,0.604-2.219,1.805c0.139,1.019,0.094,1.988-0.044,2.543c-0.646,2.591-3.188,4.117-5.778,3.473    c-2.59-0.646-4.117-3.188-3.471-5.778c0.138-0.555,0.554-1.434,1.155-2.266c0.461-1.064-0.001-2.358-1.111-2.636l-4.44-1.107    c-2.034-0.508-4.115,0.742-4.622,2.776l-5.537,22.197c-0.507,2.035,0.742,4.115,2.777,4.623L48.579,712.871z"
   fill="#FFFFFF" />
		<path
   id="path221"
   d="M72.23,657.805c-2.035-0.508-4.114,0.742-4.623,2.777l-1.477,5.919c-0.186,0.74-1.018,0.926-1.479,0.417    c-0.973-0.832-2.129-1.709-3.053-1.939c-2.589-0.646-5.133,0.882-5.779,3.472s0.881,5.132,3.471,5.776    c0.925,0.23,2.358-0.001,3.606-0.278c0.646-0.23,1.248,0.508,1.109,1.063l-1.938,7.771c-0.508,2.035,0.742,4.113,2.777,4.623    l4.438,1.105c1.11,0.277,2.312-0.603,2.219-1.804c-0.139-1.019-0.094-1.988,0.045-2.544c0.646-2.589,3.188-4.117,5.778-3.471    c2.589,0.646,4.117,3.188,3.471,5.777c-0.139,0.555-0.554,1.434-1.154,2.267c-0.463,1.063,0,2.357,1.11,2.636l4.438,1.106    c2.035,0.508,4.115-0.742,4.623-2.776l5.537-22.198c0.506-2.033-0.742-4.114-2.777-4.621L72.23,657.805z"
   fill="#4A8D8A" />
		<path
   id="path223"
   d="M32.849,673.525c-0.508,2.034,0.742,4.114,2.777,4.623l5.919,1.476c0.74,0.185,0.925,1.018,0.417,1.479    c-0.832,0.972-1.709,2.128-1.94,3.053c-0.646,2.59,0.882,5.132,3.472,5.777c2.589,0.646,5.131-0.881,5.777-3.472    c0.231-0.925-0.001-2.356-0.279-3.604c-0.232-0.647,0.508-1.25,1.063-1.111l7.77,1.938c2.035,0.509,4.114-0.74,4.622-2.776    l1.107-4.439c0.276-1.108-0.604-2.312-1.805-2.218c-1.018,0.139-1.989,0.094-2.543-0.045c-2.59-0.646-4.117-3.188-3.471-5.778    c0.646-2.589,3.188-4.116,5.778-3.471c0.555,0.139,1.434,0.554,2.266,1.154c1.064,0.462,2.359-0.001,2.637-1.111l1.107-4.438    c0.506-2.034-0.742-4.114-2.777-4.623l-22.2-5.537c-2.035-0.508-4.115,0.742-4.623,2.776L32.849,673.525z"
   fill="#E0E2E0" />
	</g>
</g>
<g
   id="Activité_d_x27_auto-évaluation_1_">
	<path
   id="path227"
   d="M62,1124.5c2.129,2.406,3.407,10.181,6,9   c1.333-2.666,2.667-5.334,4-8c0.334,0,0.666,0,1,0c0.334,3.666,0.666,7.334,1,11c3-2.333,6-4.667,9-7   c-0.334,3.333-0.666,6.667-1,10c3-2,6-4,9-6c-0.666,3.666-1.334,7.334-2,11c3.333-1.666,6.667-3.334,10-5   c-1.333,3.333-2.667,6.667-4,10c3.333-0.666,6.667-1.334,10-2c0,0.334,0,0.667,0,1c-1.666,2.666-3.334,5.334-5,8   c3.666-0.333,7.334-0.666,11-1c-2.333,2.666-4.667,5.334-7,8c0.666,0,1.334,0,2,0c2.666,0.334,5.334,0.667,8,1   c-2.666,2-5.334,4-8,6c0.334,0.666,0.666,1.334,1,2c3,0.666,6,1.334,9,2c0,0.334,0,0.667,0,1c-3,1.333-6,2.667-9,4   c0,0.334,0,0.667,0,1c2.666,1.333,5.334,2.667,8,4c0,0.334,0,0.667,0,1c-3,0.666-6,1.334-9,2c0.334,0.666,0.666,1.334,1,2   c2.333,1.666,4.667,3.334,7,5c-3.333,0.334-6.667,0.667-10,1c2.333,2.666,4.667,5.334,7,8c-3.666,0-7.334,0-11,0   c1.666,2.666,3.334,5.334,5,8c-3.333-0.666-6.667-1.334-10-2c1.333,3.333,2.667,6.667,4,10c-3.333-1.333-6.667-2.667-10-4   c0.666,3.333,1.334,6.667,2,10c-3-2-6-4-9-6c0,3.333,0,6.667,0,10c-2.666-2.333-5.334-4.667-8-7c-0.334,3.666-0.666,7.334-1,11   c-0.666-0.333-1.334-0.666-2-1c-1.666-2.666-3.334-5.334-5-8c0,0.666,0,1.334,0,2c-1,2.666-2,5.334-3,8c-0.334,0-0.667,0-1,0   c-1.333-3-2.667-6-4-9c-0.333,0-0.667,0-1,0c-1.333,2.666-2.667,5.334-4,8c-0.333,0-0.667,0-1,0c-0.667-3.333-1.333-6.667-2-10   c-0.667,0.334-1.333,0.667-2,1c-1.497,3.633-2.642,5.188-6,7c0-3.333,0-6.667,0-10c-2.999,2-6.001,4-9,6   c0.667-3.666,1.333-7.334,2-11c-3.333,2-6.667,4-10,6c1-3,2-6,3-9c-3.333,0.666-6.667,1.334-10,2c1.667-3.333,3.333-6.667,5-10   c-3.667,0.666-7.333,1.334-11,2c0.667-0.666,1.333-1.334,2-2c1.667-2.333,3.333-4.667,5-7c-3.667,0-7.333,0-11,0   c1-1.333,2-2.667,3-4c1.667-1.333,3.333-2.667,5-4c-3.667-0.333-7.333-0.666-11-1c0.333-0.666,0.667-1.334,1-2   c2.667-1.666,5.333-3.334,8-5c-3.333-1.333-6.667-2.667-10-4c3.333-1,6.667-2,10-3c-2.999-2.333-6.001-4.667-9-7   c3.667-0.333,7.333-0.666,11-1c-1.333-1.666-2.667-3.334-4-5c-1.333-1-2.667-2-4-3c3.667,0,7.333,0,11,0c-1-1-2-2-3-3   c-1.333-2-2.667-4-4-6c3.667,0.666,7.333,1.334,11,2c-1.667-3.333-3.333-6.667-5-10c3.667,1.333,7.333,2.667,11,4   c-0.667-3.333-1.333-6.667-2-10c2.667,1.666,5.333,3.334,8,5c-0.333-3.666-0.667-7.334-1-11c2.333,2.333,4.667,4.667,7,7   c0.667-0.333,1.333-0.666,2-1c0.333-3.333,0.667-6.667,1-10c1.587,3.769,3.481,6.127,7,8c0.667-3,1.333-6,2-9   c0.333,0.666,0.667,1.334,1,2c1.333,2.333,2.667,4.667,4,7c0.333,0,0.667,0,1,0C60,1131.167,61,1127.833,62,1124.5z"
   fill="#434E52"
   clip-rule="evenodd"
   fill-rule="evenodd" />
	<path
   d="M45.524,1152.186c0-1.297,1.039-2.331,2.322-2.331h4.676l0,0v-2.337   c0-2.565,2.094-4.661,4.677-4.661h2.311c2.59,0,4.676,2.087,4.676,4.661v2.337h4.676c1.285,0,2.324,1.044,2.324,2.331v2.337   c0,1.297-1.039,2.331-2.324,2.331H47.846c-1.285,0-2.322-1.043-2.322-2.331V1152.186 M73.518,1152.188h2.338   c2.582,0,4.66,2.092,4.66,4.675v48.972c0,2.6-2.086,4.675-4.66,4.675H40.852c-2.581,0-4.66-2.092-4.66-4.675v-48.972   c0-2.599,2.086-4.675,4.66-4.675h2.339c0,0.005,0,0.01,0,0.012v2.31c0,2.584,2.084,4.678,4.672,4.678h20.983   c2.58,0,4.672-2.087,4.672-4.678v-2.31C73.518,1152.197,73.518,1152.192,73.518,1152.188L73.518,1152.188L73.518,1152.188z    M58.354,1149.854c0.645,0,1.166-0.523,1.166-1.166s-0.521-1.167-1.166-1.167s-1.166,0.524-1.166,1.167   S57.709,1149.854,58.354,1149.854L58.354,1149.854z M54.855,1170.851v2.333h18.663v-2.333H54.855L54.855,1170.851z    M43.191,1168.518v6.998h6.998v-6.998H43.191L43.191,1168.518z M45.524,1170.851v2.333h2.332v-2.333H45.524L45.524,1170.851z    M43.191,1180.182v6.998h6.998v-6.998H43.191L43.191,1180.182z M45.524,1182.515v2.333h2.332v-2.333H45.524L45.524,1182.515z    M54.855,1182.515v2.333h18.663v-2.333H54.855L54.855,1182.515z M43.191,1191.846v6.999h6.998v-6.999H43.191L43.191,1191.846z    M45.524,1194.179v2.333h2.332v-2.333H45.524L45.524,1194.179z M54.855,1194.179v2.333h18.663v-2.333H54.855L54.855,1194.179z"
   fill="#E0E2E0"
   id="clipboard-list_1_" />
	<polygon
   id="polygon230"
   points="65.826,1191.877 62.523,1192.629 59.5,1197.592 59.5,1201.961 64.648,1202.877 69.672,1199.795    70.452,1195.461 69.175,1193.318 65.911,1192.211  "
   fill="#FFFFFF" />
	<polygon
   id="polygon232"
   points="85.707,1171.029 67.697,1189.148 73.129,1195.383 92.113,1175.967 103.28,1164.441    97.607,1158.857  "
   fill="#4A8D8A" />
	<g
   id="g236">
		<path
   id="path234"
   d="M58.089,1204.557v-1.004c0-0.303,0.043-7.482,3.791-11.193c1.129-1.119,2.623-1.734,4.207-1.734s3.073,0.617,4.194,1.736    c1.125,1.125,1.742,2.621,1.742,4.211c-0.002,1.586-0.621,3.076-1.744,4.193c-3.732,3.721-10.885,3.787-11.188,3.787    L58.089,1204.557z M66.087,1192.625c-1.054,0-2.048,0.41-2.8,1.154c-2.389,2.365-2.993,6.719-3.146,8.719    c1.998-0.158,6.344-0.773,8.729-3.148c0.742-0.738,1.152-1.727,1.154-2.777c0-1.057-0.41-2.049-1.156-2.795    C68.125,1193.033,67.137,1192.625,66.087,1192.625z" />
	</g>
	<g
   id="g240">
		<path
   id="path238"
   d="M59.089,1204.553c-0.256,0-0.513-0.098-0.707-0.293c-0.392-0.391-0.392-1.023,0-1.414l5.657-5.656    c0.391-0.391,1.023-0.391,1.414,0s0.391,1.023,0,1.414l-5.657,5.656C59.602,1204.455,59.345,1204.553,59.089,1204.553z" />
	</g>
	<g
   id="g244">
		<path
   id="path242"
   d="M73,1196.299L73,1196.299c-0.266,0-0.52-0.104-0.707-0.293l-5.655-5.658c-0.391-0.391-0.391-1.021,0-1.414l31.111-31.111    c0.188-0.188,0.441-0.293,0.707-0.293l0,0c0.265,0,0.52,0.105,0.707,0.293l5.656,5.658c0.391,0.391,0.391,1.021,0,1.412    l-31.112,31.113C73.52,1196.193,73.265,1196.299,73,1196.299z M68.758,1189.641l4.241,4.244l29.699-29.699l-4.242-4.242    L68.758,1189.641z" />
	</g>
	<g
   id="g248">
		<path
   id="path246"
   d="M80.07,1172.258c-0.256,0-0.512-0.098-0.707-0.293c-0.391-0.391-0.391-1.023,0-1.414l11.313-11.314    c1.949-1.949,5.123-1.949,7.072,0c0.391,0.391,0.391,1.023,0,1.414s-1.023,0.391-1.414,0c-1.171-1.17-3.075-1.17-4.244,0    l-11.313,11.314C80.583,1172.16,80.326,1172.258,80.07,1172.258z" />
	</g>
	<g
   id="g252">
		<path
   id="path250"
   d="M92.799,1176.502c-0.256,0-0.512-0.1-0.707-0.295l-5.655-5.656c-0.392-0.391-0.392-1.023,0-1.414    c0.391-0.391,1.022-0.391,1.414,0l5.655,5.656c0.392,0.391,0.392,1.023,0,1.414C93.312,1176.402,93.055,1176.502,92.799,1176.502z    " />
	</g>
	<path
   id="path254"
   d="M47.846,1156.854h21.015c1.285,0,2.324-1.034,2.324-2.331v-2.337c0-1.287-1.039-2.331-2.324-2.331h-4.676   v-2.337c0-2.574-2.086-4.661-4.676-4.661h-2.311c-2.583,0-4.677,2.096-4.677,4.661v2.337h-4.676c-1.283,0-2.322,1.034-2.322,2.331   v2.337C45.524,1155.811,46.561,1156.854,47.846,1156.854z M58.354,1147.521c0.645,0,1.166,0.524,1.166,1.167   s-0.521,1.166-1.166,1.166s-1.166-0.523-1.166-1.166S57.709,1147.521,58.354,1147.521z"
   fill="#F67876" />
	<path
   id="path256"
   d="M52.399,1165.396c-0.146-0.146-0.383-0.146-0.527,0l-5.557,5.531c-0.146,0.146-0.383,0.146-0.528,0   l-2.435-2.479c-0.071-0.073-0.166-0.109-0.262-0.109c-0.096-0.002-0.192,0.034-0.266,0.109l-1.076,0.968   c-0.071,0.072-0.11,0.165-0.11,0.261c0,0.098,0.039,0.197,0.111,0.271l2.454,2.576c0.146,0.148,0.384,0.385,0.528,0.531   l1.056,1.064c0.146,0.146,0.382,0.146,0.528,0l7.139-7.127c0.146-0.146,0.146-0.386,0-0.531L52.399,1165.396z"
   fill="#4A8D8A" />
	<rect
   id="rect258"
   height="23.333"
   width="36.333"
   fill="none"
   y="1160.592"
   x="57.051" />
	<text
   id="text260"
   font-size="12"
   font-family="'Impact'"
   fill="#4A8D8A"
   transform="matrix(1 0 0 1 57.0513 1170.084)">OK</text>

</g>
</svg>