<?xml version="1.0" encoding="UTF-8" standalone="no"?>
<svg
   xmlns:dc="http://purl.org/dc/elements/1.1/"
   xmlns:cc="http://creativecommons.org/ns#"
   xmlns:rdf="http://www.w3.org/1999/02/22-rdf-syntax-ns#"
   xmlns:svg="http://www.w3.org/2000/svg"
   xmlns="http://www.w3.org/2000/svg"
   xmlns:sodipodi="http://sodipodi.sourceforge.net/DTD/sodipodi-0.dtd"
   xmlns:inkscape="http://www.inkscape.org/namespaces/inkscape"
   enable-background="new 0 0 32 32"
   height="200"
   id="Layer_1"
   version="1.1"
   viewBox="0 0 40 200"
   width="40"
   xml:space="preserve"
   sodipodi:docname="blocks.svg"
   inkscape:version="0.92.4 (5da689c313, 2019-01-14)"><metadata
     id="metadata12"><rdf:RDF><cc:Work
         rdf:about=""><dc:format>image/svg+xml</dc:format><dc:type
           rdf:resource="http://purl.org/dc/dcmitype/StillImage" /><dc:title></dc:title></cc:Work></rdf:RDF></metadata><defs
     id="defs10" /><sodipodi:namedview
     pagecolor="#ffffff"
     bordercolor="#666666"
     borderopacity="1"
     objecttolerance="10"
     gridtolerance="10"
     guidetolerance="10"
     inkscape:pageopacity="0"
     inkscape:pageshadow="2"
     inkscape:window-width="1920"
     inkscape:window-height="1017"
     id="namedview8"
     showgrid="false"
     inkscape:zoom="2.6375"
     inkscape:cx="-11.030001"
     inkscape:cy="62.957205"
     inkscape:window-x="3832"
     inkscape:window-y="515"
     inkscape:window-maximized="1"
     inkscape:current-layer="Layer_1" /><path
     id="path4"
     style="fill:#434e52;stroke-width:1.25;fill-opacity:1"
     d="m 20,11.25 c -4.13625,0 -7.5,3.36375 -7.5,7.5 0,0.345 0.28,0.625 0.625,0.625 0.345,0 0.625,-0.28 0.625,-0.625 0,-3.44625 2.80375,-6.25 6.25,-6.25 0.345,0 0.625,-0.28 0.625,-0.625 C 20.625,11.53 20.34375,11.25 20,11.25 Z M 20,5 C 12.405,5 6.25,11.155 6.25,18.75 c 0,5.03875 4.61,10.37875 6.28875,15.06875 C 15.0425,40.8125 14.765,45 20,45 25.3125,45 24.95625,40.8325 27.46125,33.8475 29.145,29.1475 33.75,23.75 33.75,18.75 33.75,11.155 27.5925,5 20,5 Z m 3.24,33.97 -6.1975,0.77375 C 16.82125,39.10375 16.58375,38.355 16.295,37.3775 16.2912,37.365 16.2862,37.35125 16.28375,37.33875 l 7.735,-0.96625 c -0.11,0.36875 -0.2275,0.75625 -0.33,1.10375 C 23.525,38.0375 23.37875,38.525 23.24,38.97 Z M 15.92,36.135 C 15.6925,35.3825 15.43625,34.59 15.15125,33.75 h 9.7075 c -0.15375,0.44875 -0.3075,0.89875 -0.44,1.32375 z M 20,42.5 c -1.26625,0 -1.84875,-0.14625 -2.49625,-1.5625 l 5.2975,-0.66375 C 22.03375,42.34125 21.475,42.5 20,42.5 Z M 25.84,31.25 H 14.17375 c -0.6225,-1.35 -1.37,-2.7 -2.1075,-4.02125 C 10.435,24.31 8.75,21.29125 8.75,18.75 8.75,12.54625 13.79625,7.5 20,7.5 c 6.20375,0 11.25,5.04625 11.25,11.25 0,2.5225 -1.6875,5.5575 -3.32,8.49375 C 27.2,28.56 26.4575,29.9075 25.84,31.25 Z" /><path
     style="stroke-width:1.76118898;fill:#434e52;fill-opacity:1"
     d="M 16.826172 55.007812 C 11.561393 55.199511 6.8760495 58.759783 5.4316406 64.150391 C 3.6539067 70.784984 7.5157969 77.470313 14.150391 79.248047 C 15.674421 79.656409 17.198571 79.755463 18.667969 79.603516 L 20.498047 82.773438 L 23.900391 83.685547 L 22.990234 87.087891 L 26.392578 87.998047 L 25.480469 91.400391 L 26.351562 92.912109 C 26.600632 93.34351 26.895897 93.603486 27.40625 93.740234 L 31.828125 94.925781 C 32.848831 95.199279 33.71283 94.700394 33.986328 93.679688 L 35.171875 89.257812 C 35.308623 88.74746 35.229542 88.361089 34.980469 87.929688 L 27.296875 74.621094 C 28.163104 73.424572 28.839704 72.055207 29.248047 70.53125 C 31.025781 63.896656 27.165844 57.209375 20.53125 55.431641 C 19.287264 55.098315 18.041121 54.963574 16.826172 55.007812 z M 15.722656 59.705078 C 16.016713 59.724043 16.313622 59.771792 16.611328 59.851562 C 18.992977 60.489723 20.36277 62.862492 19.724609 65.244141 C 19.086448 67.625791 16.71368 68.995583 14.332031 68.357422 C 11.950381 67.719261 10.580589 65.346493 11.21875 62.964844 C 11.777141 60.880901 13.664261 59.572326 15.722656 59.705078 z "
     id="path822" /><path
     id="path840"
     style="fill:#434e52;stroke-width:1.25001454;fill-opacity:1"
     d="m 19.595112,137.47116 c -1.670019,0 -3.237538,-0.65376 -4.418802,-1.83627 -1.181263,-1.38127 -1.831271,-2.94879 -1.831271,-4.61881 0,-1.67002 0.650008,-3.23753 1.831271,-4.2138 l 8.360098,-8.36009 c 0.943761,-0.94751 1.463767,-2.20253 1.463767,-3.53504 0,-1.33752 -0.520006,-2.59253 -1.465017,-3.53505 -1.948773,-1.94877 -5.12006,-1.95252 -7.067582,0 -0.947512,0.94252 -1.467518,2.19628 -1.467518,3.53505 H 10 c 0,-2.67129 1.042512,-5.18506 2.935034,-7.07509 3.775044,-3.77879 10.356371,-3.77504 14.136415,0.005 1.888772,1.88378 2.928785,4.3938 2.928785,7.07009 0,2.67128 -1.040013,5.18131 -2.930035,7.07008 l -8.360097,8.15384 c -0.486256,0.48876 -0.486256,1.27877 0,1.76752 0.488755,0.48876 1.278765,0.48876 1.76752,0 0.317504,-0.3225 0.366255,-0.69375 0.366255,-0.88876 h 5.000058 c 0,1.67002 -0.650008,3.24254 -1.831271,4.62381 -1.180014,1.18251 -2.747532,1.83752 -4.417552,1.83752 z m 2.405028,5.02881 c 0,1.37751 -1.118763,2.50003 -2.500029,2.50003 -1.381266,0 -2.500029,-1.12252 -2.500029,-2.50003 0,-1.38627 1.118763,-2.50003 2.500029,-2.50003 1.381266,0 2.500029,1.11376 2.500029,2.50003 z" /><path
     id="path860"
     d="m 34.968651,190.81087 -6.531065,-11.31212 c 1.830732,-1.73809 3.252109,-3.95406 3.954095,-6.57391 2.034591,-7.59319 -2.474858,-15.40216 -10.066943,-17.43646 -7.593198,-2.03459 -15.4018697,2.47375 -17.4364605,10.06695 -2.034294,7.59209 2.4737486,15.40187 10.0669455,17.43646 2.61984,0.70198 5.249621,0.57902 7.669013,-0.13292 l 6.532261,11.30766 c 0.45878,0.79462 1.498518,1.06842 2.291949,0.61412 l 2.906078,-1.67783 c 0.794627,-0.45878 1.072903,-1.49732 0.614127,-2.29195 z M 16.183475,178.40789 c -5.062882,-1.3566 -8.0678919,-6.56142 -6.7112959,-11.62431 1.3565949,-5.06288 6.5614239,-8.06789 11.6243059,-6.71129 5.062883,1.35659 8.06789,6.56141 6.711295,11.6243 -1.356595,5.06288 -6.561422,8.06789 -11.624305,6.7113 z"
     inkscape:connector-curvature="0"
     style="stroke-width:0.03707502;fill:#434e52;fill-opacity:1" /></svg>