<?xml version="1.0" encoding="UTF-8" standalone="no"?>
<svg
   xmlns:dc="http://purl.org/dc/elements/1.1/"
   xmlns:cc="http://creativecommons.org/ns#"
   xmlns:rdf="http://www.w3.org/1999/02/22-rdf-syntax-ns#"
   xmlns:svg="http://www.w3.org/2000/svg"
   xmlns="http://www.w3.org/2000/svg"
   id="svg18556"
   version="1.1"
   viewBox="0 0 19.843749 39.687502"
   height="150"
   width="75">
  <defs
     id="defs18550" />
  <metadata
     id="metadata18553">
    <rdf:RDF>
      <cc:Work
         rdf:about="">
        <dc:format>image/svg+xml</dc:format>
        <dc:type
           rdf:resource="http://purl.org/dc/dcmitype/StillImage" />
        <dc:title></dc:title>
      </cc:Work>
    </rdf:RDF>
  </metadata>
  <g
     transform="translate(0,-257.3125)"
     id="layer1">
    <g
       transform="translate(32.181555,-17.935242)"
       id="g23098">
      <circle
         style="opacity:0.2;fill:#000000;fill-opacity:1;stroke:#000000;stroke-width:0;stroke-linejoin:round;stroke-miterlimit:4;stroke-dasharray:none;stroke-opacity:1"
         id="path23094"
         cx="-22.25968"
         cy="285.16962"
         r="9.921875" />
      <path
         id="path4157-4"
         d="m -19.363221,285.30121 -5.655536,3.14451 q -0.09922,0.0534 -0.167911,0.0153 -0.06869,-0.0382 -0.06869,-0.15264 v -6.27375 q 0,-0.1068 0.06869,-0.15265 0.06869,-0.0458 0.167911,0.0153 l 5.655536,3.14451 q 0.09922,0.0534 0.09922,0.12971 0,0.0764 -0.09922,0.12973 z"
         style="fill:#ffffff;fill-opacity:1;stroke-width:0.36747617" />
    </g>
    <g
       transform="translate(2.1358347,-40.897278)"
       id="g23110">
      <circle
         r="9.921875"
         cy="327.9754"
         cx="7.7860408"
         id="circle23100"
         style="opacity:0.2;fill:#000000;fill-opacity:1;stroke:#000000;stroke-width:0;stroke-linejoin:round;stroke-miterlimit:4;stroke-dasharray:none;stroke-opacity:1" />
      <path
         id="path4144-9"
         d="m 11.089106,324.9457 v 6.05941 q 0,0.10791 -0.0771,0.19272 -0.0771,0.0849 -0.200437,0.0849 H 8.6144527 q -0.115637,0 -0.19273,-0.0849 -0.0771,-0.0849 -0.0848,-0.19272 v -6.05941 q 0,-0.10792 0.0848,-0.19273 0.0848,-0.0849 0.19273,-0.0849 h 2.1971163 q 0.115637,0 0.200437,0.0849 0.0848,0.0849 0.0771,0.19273 z m -3.8545883,0 v 6.05941 q 0,0.10791 -0.0771,0.19272 -0.0771,0.0849 -0.200438,0.0849 h -2.197115 q -0.115637,0 -0.19273,-0.0849 -0.0771,-0.0847 -0.0848,-0.19272 v -6.05941 q 0,-0.10792 0.0848,-0.19273 0.0848,-0.0849 0.19273,-0.0849 h 2.197115 q 0.115637,0 0.200438,0.0849 0.0848,0.0849 0.0771,0.19273 z"
         style="fill:#ffffff;fill-opacity:1;stroke-width:0.36747065" />
    </g>
  </g>
</svg>
