<?xml version="1.0" encoding="UTF-8" standalone="no"?>
<svg
   xmlns:dc="http://purl.org/dc/elements/1.1/"
   xmlns:cc="http://creativecommons.org/ns#"
   xmlns:rdf="http://www.w3.org/1999/02/22-rdf-syntax-ns#"
   xmlns:svg="http://www.w3.org/2000/svg"
   xmlns="http://www.w3.org/2000/svg"
   id="svg2"
   xml:space="preserve"
   enable-background="new 0 0 128 13"
   viewBox="0 0 124 12.060302"
   height="12.060302"
   width="124"
   y="0px"
   x="0px"
   version="1.1"><metadata
   id="metadata462"><rdf:RDF><cc:Work
       rdf:about=""><dc:format>image/svg+xml</dc:format><dc:type
         rdf:resource="http://purl.org/dc/dcmitype/StillImage" /><dc:title></dc:title></cc:Work></rdf:RDF></metadata><defs
   id="defs460">
	

		
		
		
		
		
		
		
		
		
	</defs>




<g
   transform="matrix(1.0050251,0,0,1.0050251,0,-0.25125627)"
   id="g368">
			<g
   id="g370">
				<path
   style="fill:#e67e22"
   id="path372"
   d="m 11.94,5.265 c 0,0.119 -0.062,0.239 -0.187,0.358 L 9.149,8.13 9.765,11.772 c 0.005,0 0.008,0.061 0.008,0.12 0,0.119 -0.026,0.179 -0.079,0.239 -0.048,0.06 -0.12,0.119 -0.216,0.119 -0.091,0 -0.187,0 -0.287,-0.06 L 5.97,10.459 2.749,12.19 C 2.644,12.25 2.548,12.25 2.462,12.25 2.361,12.25 2.285,12.19 2.232,12.131 2.184,12.07 2.16,12.011 2.16,11.892 c 0,0 0.005,-0.06 0.015,-0.12 L 2.791,8.13 0.179,5.623 C 0.06,5.504 0,5.384 0,5.265 0,5.086 0.134,4.966 0.402,4.966 L 4.004,4.429 5.619,1.146 C 5.71,0.966 5.827,0.847 5.971,0.847 c 0.144,0 0.261,0.119 0.352,0.299 l 1.614,3.283 3.603,0.537 c 0.266,0 0.4,0.12 0.4,0.299" />
			</g>
			<g
   id="g374">
				<path
   style="fill:#f1c40f"
   id="path376"
   d="m 11.94,4.668 c 0,0.119 -0.062,0.238 -0.187,0.358 l -2.604,2.507 0.616,3.642 c 0.005,0 0.008,0.061 0.008,0.12 0,0.119 -0.026,0.179 -0.079,0.238 -0.048,0.061 -0.12,0.12 -0.216,0.12 -0.091,0 -0.187,0 -0.287,-0.06 L 5.97,9.862 2.748,11.593 c -0.105,0.06 -0.201,0.06 -0.287,0.06 -0.101,0 -0.177,-0.06 -0.23,-0.12 -0.048,-0.06 -0.072,-0.119 -0.072,-0.238 0,0 0.005,-0.06 0.015,-0.12 L 2.791,7.533 0.179,5.026 C 0.06,4.906 0,4.787 0,4.668 0,4.488 0.134,4.369 0.402,4.369 L 4.004,3.832 5.619,0.549 C 5.709,0.369 5.827,0.25 5.97,0.25 c 0.143,0 0.261,0.119 0.352,0.299 l 1.614,3.283 3.603,0.537 c 0.267,0 0.401,0.119 0.401,0.299" />
			</g>
		</g><g
   transform="matrix(1.004941,0,0,1.004941,-0.57867909,-0.25022524)"
   id="g378">
			<g
   id="g380">
				<path
   style="fill:#e67e22"
   id="path382"
   d="m 26.448,5.265 c 0,0.119 -0.062,0.239 -0.187,0.358 l -2.604,2.507 0.616,3.642 c 0.005,0 0.008,0.061 0.008,0.12 0,0.119 -0.026,0.179 -0.079,0.239 -0.048,0.06 -0.12,0.119 -0.216,0.119 -0.091,0 -0.187,0 -0.287,-0.06 l -3.222,-1.731 -3.222,1.731 c -0.105,0.06 -0.201,0.06 -0.287,0.06 -0.101,0 -0.177,-0.06 -0.23,-0.119 -0.048,-0.061 -0.072,-0.12 -0.072,-0.239 0,0 0.005,-0.06 0.015,-0.12 L 17.298,8.13 14.686,5.623 c -0.12,-0.119 -0.179,-0.239 -0.179,-0.358 0,-0.179 0.134,-0.299 0.402,-0.299 l 3.602,-0.537 1.615,-3.283 c 0.091,-0.18 0.208,-0.299 0.352,-0.299 0.144,0 0.261,0.119 0.352,0.299 l 1.614,3.283 3.603,0.537 c 0.266,0 0.401,0.12 0.401,0.299" />
			</g>
			<g
   id="g384">
				<path
   style="fill:#f1c40f"
   id="path386"
   d="m 26.448,4.668 c 0,0.119 -0.062,0.238 -0.187,0.358 l -2.604,2.507 0.616,3.642 c 0.005,0 0.008,0.061 0.008,0.12 0,0.119 -0.026,0.179 -0.079,0.238 -0.048,0.061 -0.12,0.12 -0.216,0.12 -0.091,0 -0.187,0 -0.287,-0.06 l -3.222,-1.731 -3.222,1.731 c -0.105,0.06 -0.201,0.06 -0.287,0.06 -0.101,0 -0.177,-0.06 -0.23,-0.12 -0.048,-0.06 -0.072,-0.119 -0.072,-0.238 0,0 0.005,-0.06 0.015,-0.12 L 17.298,7.533 14.686,5.026 c -0.12,-0.12 -0.179,-0.239 -0.179,-0.358 0,-0.18 0.134,-0.299 0.402,-0.299 l 3.602,-0.537 1.615,-3.283 c 0.091,-0.18 0.208,-0.299 0.352,-0.299 0.144,0 0.261,0.119 0.352,0.299 l 1.614,3.283 3.603,0.537 c 0.266,0 0.401,0.119 0.401,0.299" />
			</g>
		</g><g
   transform="matrix(1.0050251,0,0,1.0050251,-1.1608033,-0.25125627)"
   id="g388">
			<g
   id="g390">
				<path
   style="fill:#e67e22"
   id="path392"
   d="m 40.955,5.265 c 0,0.119 -0.062,0.239 -0.187,0.358 l -2.604,2.507 0.616,3.642 c 0.006,0 0.008,0.061 0.008,0.12 0,0.119 -0.026,0.179 -0.078,0.239 -0.048,0.06 -0.12,0.119 -0.216,0.119 -0.091,0 -0.187,0 -0.287,-0.06 l -3.222,-1.731 -3.222,1.731 c -0.105,0.06 -0.201,0.06 -0.287,0.06 -0.101,0 -0.178,-0.06 -0.23,-0.119 -0.048,-0.061 -0.071,-0.12 -0.071,-0.239 0,0 0.005,-0.06 0.015,-0.12 L 31.806,8.13 29.195,5.623 c -0.12,-0.119 -0.18,-0.239 -0.18,-0.358 0,-0.179 0.135,-0.299 0.402,-0.299 l 3.602,-0.537 1.615,-3.283 c 0.091,-0.18 0.208,-0.299 0.352,-0.299 0.143,0 0.261,0.119 0.352,0.299 l 1.614,3.283 3.603,0.537 c 0.266,0 0.4,0.12 0.4,0.299" />
			</g>
			<g
   id="g394">
				<path
   style="fill:#f1c40f"
   id="path396"
   d="m 40.955,4.668 c 0,0.119 -0.062,0.238 -0.187,0.358 l -2.604,2.507 0.616,3.642 c 0.006,0 0.008,0.061 0.008,0.12 0,0.119 -0.026,0.179 -0.078,0.238 -0.048,0.061 -0.12,0.12 -0.216,0.12 -0.091,0 -0.187,0 -0.287,-0.06 l -3.222,-1.731 -3.222,1.731 c -0.105,0.06 -0.201,0.06 -0.287,0.06 -0.101,0 -0.178,-0.06 -0.23,-0.12 -0.048,-0.06 -0.071,-0.119 -0.071,-0.238 0,0 0.005,-0.06 0.015,-0.12 L 31.806,7.533 29.195,5.026 c -0.12,-0.12 -0.18,-0.239 -0.18,-0.358 0,-0.18 0.135,-0.299 0.402,-0.299 l 3.602,-0.537 1.615,-3.283 c 0.091,-0.18 0.208,-0.299 0.352,-0.299 0.143,0 0.261,0.119 0.352,0.299 l 1.614,3.283 3.603,0.537 c 0.266,0 0.4,0.119 0.4,0.299" />
			</g>
		</g><g
   transform="matrix(1.004941,0,0,1.004941,-1.7370404,-0.25022524)"
   id="g398">
			<g
   id="g400">
				<path
   style="fill:#e67e22"
   id="path402"
   d="m 55.463,5.265 c 0,0.119 -0.062,0.239 -0.187,0.358 l -2.604,2.507 0.616,3.642 c 0.005,0 0.008,0.061 0.008,0.12 0,0.119 -0.026,0.179 -0.079,0.239 -0.048,0.06 -0.12,0.119 -0.216,0.119 -0.091,0 -0.187,0 -0.287,-0.06 L 49.492,10.459 46.27,12.19 c -0.105,0.06 -0.201,0.06 -0.287,0.06 -0.101,0 -0.177,-0.06 -0.23,-0.119 -0.048,-0.061 -0.072,-0.12 -0.072,-0.239 0,0 0.005,-0.06 0.015,-0.12 L 46.313,8.13 43.701,5.623 c -0.12,-0.119 -0.179,-0.239 -0.179,-0.358 0,-0.179 0.134,-0.299 0.402,-0.299 l 3.602,-0.537 1.615,-3.283 c 0.091,-0.18 0.208,-0.299 0.352,-0.299 0.144,0 0.261,0.119 0.352,0.299 l 1.614,3.283 3.603,0.537 c 0.267,0 0.401,0.12 0.401,0.299" />
			</g>
			<g
   id="g404">
				<path
   style="fill:#f1c40f"
   id="path406"
   d="m 55.463,4.668 c 0,0.119 -0.062,0.238 -0.187,0.358 l -2.604,2.507 0.616,3.642 c 0.005,0 0.008,0.061 0.008,0.12 0,0.119 -0.026,0.179 -0.079,0.238 -0.048,0.061 -0.12,0.12 -0.216,0.12 -0.091,0 -0.187,0 -0.287,-0.06 L 49.492,9.862 46.27,11.593 c -0.105,0.06 -0.201,0.06 -0.287,0.06 -0.101,0 -0.177,-0.06 -0.23,-0.12 -0.048,-0.06 -0.072,-0.119 -0.072,-0.238 0,0 0.005,-0.06 0.015,-0.12 L 46.313,7.533 43.701,5.026 c -0.12,-0.12 -0.179,-0.239 -0.179,-0.358 0,-0.18 0.134,-0.299 0.402,-0.299 l 3.602,-0.537 1.615,-3.283 c 0.091,-0.18 0.208,-0.299 0.352,-0.299 0.144,0 0.261,0.119 0.352,0.299 l 1.614,3.283 3.603,0.537 c 0.267,0 0.401,0.119 0.401,0.299" />
			</g>
		</g><g
   transform="matrix(1.0050251,0,0,1.0050251,-2.321608,-0.25125627)"
   id="g408">
			<g
   id="g410">
				<path
   style="fill:#e67e22"
   id="path412"
   d="m 69.97,5.265 c 0,0.119 -0.062,0.239 -0.187,0.358 l -2.604,2.507 0.616,3.642 c 0.005,0 0.008,0.061 0.008,0.12 0,0.119 -0.026,0.179 -0.079,0.239 -0.048,0.06 -0.12,0.119 -0.216,0.119 -0.091,0 -0.187,0 -0.287,-0.06 L 64,10.459 60.778,12.19 c -0.105,0.06 -0.201,0.06 -0.287,0.06 -0.101,0 -0.177,-0.06 -0.23,-0.119 -0.048,-0.061 -0.072,-0.12 -0.072,-0.239 0,0 0.005,-0.06 0.015,-0.12 L 60.821,8.13 58.209,5.623 C 58.089,5.504 58.03,5.384 58.03,5.265 c 0,-0.179 0.134,-0.299 0.402,-0.299 l 3.602,-0.537 1.615,-3.283 c 0.091,-0.18 0.208,-0.299 0.352,-0.299 0.144,0 0.261,0.119 0.352,0.299 l 1.614,3.283 3.603,0.537 c 0.266,0 0.4,0.12 0.4,0.299" />
			</g>
			<g
   id="g414">
				<path
   style="fill:#f1c40f"
   id="path416"
   d="m 69.97,4.668 c 0,0.119 -0.062,0.238 -0.187,0.358 l -2.604,2.507 0.616,3.642 c 0.005,0 0.008,0.061 0.008,0.12 0,0.119 -0.026,0.179 -0.079,0.238 -0.048,0.061 -0.12,0.12 -0.216,0.12 -0.091,0 -0.187,0 -0.287,-0.06 L 64,9.862 60.778,11.593 c -0.105,0.06 -0.201,0.06 -0.287,0.06 -0.101,0 -0.177,-0.06 -0.23,-0.12 -0.048,-0.06 -0.072,-0.119 -0.072,-0.238 0,0 0.005,-0.06 0.015,-0.12 L 60.821,7.533 58.209,5.026 C 58.089,4.906 58.03,4.787 58.03,4.668 c 0,-0.18 0.134,-0.299 0.402,-0.299 L 62.034,3.832 63.649,0.549 C 63.739,0.369 63.857,0.25 64,0.25 c 0.143,0 0.261,0.119 0.352,0.299 l 1.614,3.283 3.603,0.537 c 0.267,0 0.401,0.119 0.401,0.299" />
			</g>
		</g><g
   transform="matrix(1.004941,0,0,1.004941,-2.8954053,-0.25022524)"
   id="g418">
			<g
   id="g420">
				<path
   style="fill:#e67e22"
   id="path422"
   d="m 84.478,5.265 c 0,0.119 -0.062,0.239 -0.187,0.358 l -2.604,2.507 0.616,3.642 c 0.005,0 0.008,0.061 0.008,0.12 0,0.119 -0.026,0.179 -0.079,0.239 -0.048,0.06 -0.12,0.119 -0.216,0.119 -0.091,0 -0.187,0 -0.287,-0.06 l -3.222,-1.731 -3.222,1.731 c -0.105,0.06 -0.201,0.06 -0.287,0.06 -0.101,0 -0.177,-0.06 -0.23,-0.119 -0.048,-0.061 -0.072,-0.12 -0.072,-0.239 0,0 0.005,-0.06 0.015,-0.12 L 75.328,8.13 72.716,5.623 c -0.12,-0.119 -0.179,-0.239 -0.179,-0.358 0,-0.179 0.134,-0.299 0.402,-0.299 l 3.602,-0.537 1.615,-3.283 c 0.091,-0.18 0.208,-0.299 0.352,-0.299 0.144,0 0.261,0.119 0.352,0.299 l 1.614,3.283 3.603,0.537 c 0.266,0 0.401,0.12 0.401,0.299" />
			</g>
			<g
   id="g424">
				<path
   style="fill:#f1c40f"
   id="path426"
   d="m 84.478,4.668 c 0,0.119 -0.062,0.238 -0.187,0.358 l -2.604,2.507 0.616,3.642 c 0.005,0 0.008,0.061 0.008,0.12 0,0.119 -0.026,0.179 -0.079,0.238 -0.048,0.061 -0.12,0.12 -0.216,0.12 -0.091,0 -0.187,0 -0.287,-0.06 l -3.222,-1.731 -3.222,1.731 c -0.105,0.06 -0.201,0.06 -0.287,0.06 -0.101,0 -0.177,-0.06 -0.23,-0.12 -0.048,-0.06 -0.072,-0.119 -0.072,-0.238 0,0 0.005,-0.06 0.015,-0.12 L 75.328,7.533 72.716,5.026 c -0.12,-0.12 -0.179,-0.239 -0.179,-0.358 0,-0.18 0.134,-0.299 0.402,-0.299 l 3.602,-0.537 1.615,-3.283 c 0.091,-0.18 0.208,-0.299 0.352,-0.299 0.144,0 0.261,0.119 0.352,0.299 l 1.614,3.283 3.603,0.537 c 0.266,0 0.401,0.119 0.401,0.299" />
			</g>
		</g><g
   transform="matrix(1.0050251,0,0,1.0050251,-3.4824121,-0.25125627)"
   id="g428">
			<g
   id="g430">
				<path
   style="fill:#e67e22"
   id="path432"
   d="m 98.985,5.265 c 0,0.119 -0.062,0.239 -0.187,0.358 l -2.604,2.507 0.616,3.642 c 0.005,0 0.008,0.061 0.008,0.12 0,0.119 -0.026,0.179 -0.079,0.239 -0.048,0.06 -0.119,0.119 -0.216,0.119 -0.091,0 -0.187,0 -0.287,-0.06 l -3.222,-1.731 -3.222,1.731 c -0.105,0.06 -0.201,0.06 -0.287,0.06 -0.101,0 -0.177,-0.06 -0.229,-0.119 -0.048,-0.061 -0.072,-0.12 -0.072,-0.239 0,0 0.005,-0.06 0.015,-0.12 L 89.836,8.13 87.224,5.623 C 87.105,5.504 87.045,5.384 87.045,5.265 c 0,-0.179 0.134,-0.299 0.401,-0.299 l 3.603,-0.537 1.614,-3.283 c 0.091,-0.18 0.209,-0.299 0.352,-0.299 0.144,0 0.261,0.119 0.352,0.299 l 1.614,3.283 3.603,0.537 c 0.267,0 0.401,0.12 0.401,0.299" />
			</g>
			<g
   id="g434">
				<path
   style="fill:#f1c40f"
   id="path436"
   d="m 98.985,4.668 c 0,0.119 -0.062,0.238 -0.187,0.358 l -2.604,2.507 0.616,3.642 c 0.005,0 0.008,0.061 0.008,0.12 0,0.119 -0.026,0.179 -0.079,0.238 -0.048,0.061 -0.119,0.12 -0.216,0.12 -0.091,0 -0.187,0 -0.287,-0.06 l -3.222,-1.731 -3.222,1.731 c -0.105,0.06 -0.201,0.06 -0.287,0.06 -0.101,0 -0.177,-0.06 -0.229,-0.12 -0.048,-0.06 -0.072,-0.119 -0.072,-0.238 0,0 0.005,-0.06 0.015,-0.12 L 89.836,7.533 87.224,5.026 c -0.119,-0.12 -0.179,-0.239 -0.179,-0.358 0,-0.18 0.134,-0.299 0.401,-0.299 l 3.603,-0.537 1.614,-3.283 c 0.091,-0.18 0.209,-0.299 0.352,-0.299 0.144,0 0.261,0.119 0.352,0.299 l 1.614,3.283 3.603,0.537 c 0.267,0 0.401,0.119 0.401,0.299" />
			</g>
		</g><g
   transform="matrix(1.004941,0,0,1.004941,-4.0537643,-0.25022524)"
   id="g438">
			<g
   id="g440">
				<path
   style="fill:#e67e22"
   id="path442"
   d="m 113.493,5.265 c 0,0.119 -0.062,0.239 -0.187,0.358 l -2.604,2.507 0.616,3.642 c 0.005,0 0.008,0.061 0.008,0.12 0,0.119 -0.026,0.179 -0.079,0.239 -0.048,0.06 -0.12,0.119 -0.216,0.119 -0.091,0 -0.187,0 -0.287,-0.06 l -3.222,-1.731 -3.222,1.731 c -0.105,0.06 -0.201,0.06 -0.287,0.06 -0.101,0 -0.177,-0.06 -0.23,-0.119 -0.048,-0.061 -0.072,-0.12 -0.072,-0.239 0,0 0.005,-0.06 0.015,-0.12 l 0.617,-3.642 -2.612,-2.507 c -0.12,-0.119 -0.179,-0.239 -0.179,-0.358 0,-0.179 0.134,-0.299 0.402,-0.299 l 3.602,-0.537 1.615,-3.283 c 0.091,-0.18 0.208,-0.299 0.352,-0.299 0.144,0 0.261,0.119 0.352,0.299 l 1.614,3.283 3.603,0.537 c 0.266,0 0.401,0.12 0.401,0.299" />
			</g>
			<g
   id="g444">
				<path
   style="fill:#f1c40f"
   id="path446"
   d="m 113.493,4.668 c 0,0.119 -0.062,0.238 -0.187,0.358 l -2.604,2.507 0.616,3.642 c 0.005,0 0.008,0.061 0.008,0.12 0,0.119 -0.026,0.179 -0.079,0.238 -0.048,0.061 -0.12,0.12 -0.216,0.12 -0.091,0 -0.187,0 -0.287,-0.06 l -3.222,-1.731 -3.222,1.731 c -0.105,0.06 -0.201,0.06 -0.287,0.06 -0.101,0 -0.177,-0.06 -0.23,-0.12 -0.048,-0.06 -0.072,-0.119 -0.072,-0.238 0,0 0.005,-0.06 0.015,-0.12 l 0.617,-3.642 -2.612,-2.507 c -0.12,-0.12 -0.179,-0.239 -0.179,-0.358 0,-0.18 0.134,-0.299 0.402,-0.299 l 3.602,-0.537 1.615,-3.283 c 0.091,-0.18 0.208,-0.299 0.352,-0.299 0.144,0 0.261,0.119 0.352,0.299 l 1.614,3.283 3.603,0.537 c 0.266,0 0.401,0.119 0.401,0.299" />
			</g>
		</g><g
   transform="matrix(1.004941,0,0,1.004941,-4.6324475,-0.25022524)"
   id="g448">
			<g
   id="g450">
				<path
   style="fill:#e67e22"
   id="path452"
   d="m 128,5.265 c 0,0.119 -0.062,0.239 -0.187,0.358 l -2.604,2.507 0.616,3.642 c 0.005,0 0.008,0.061 0.008,0.12 0,0.119 -0.026,0.179 -0.079,0.239 -0.048,0.06 -0.12,0.119 -0.216,0.119 -0.091,0 -0.187,0 -0.287,-0.06 l -3.222,-1.731 -3.222,1.731 c -0.105,0.06 -0.201,0.06 -0.287,0.06 -0.101,0 -0.177,-0.06 -0.23,-0.119 -0.048,-0.061 -0.072,-0.12 -0.072,-0.239 0,0 0.005,-0.06 0.015,-0.12 L 118.85,8.13 116.238,5.623 c -0.12,-0.119 -0.179,-0.239 -0.179,-0.358 0,-0.179 0.134,-0.299 0.402,-0.299 l 3.602,-0.537 1.615,-3.283 c 0.091,-0.18 0.208,-0.299 0.352,-0.299 0.144,0 0.261,0.119 0.352,0.299 l 1.614,3.283 3.603,0.537 c 0.267,0 0.401,0.12 0.401,0.299" />
			</g>
			<g
   id="g454">
				<path
   style="fill:#f1c40f"
   id="path456"
   d="m 128,4.668 c 0,0.119 -0.062,0.238 -0.187,0.358 l -2.604,2.507 0.616,3.642 c 0.005,0 0.008,0.061 0.008,0.12 0,0.119 -0.026,0.179 -0.079,0.238 -0.048,0.061 -0.12,0.12 -0.216,0.12 -0.091,0 -0.187,0 -0.287,-0.06 l -3.222,-1.731 -3.222,1.731 c -0.105,0.06 -0.201,0.06 -0.287,0.06 -0.101,0 -0.177,-0.06 -0.23,-0.12 -0.048,-0.06 -0.072,-0.119 -0.072,-0.238 0,0 0.005,-0.06 0.015,-0.12 l 0.617,-3.642 -2.612,-2.507 c -0.12,-0.12 -0.179,-0.239 -0.179,-0.358 0,-0.18 0.134,-0.299 0.402,-0.299 l 3.602,-0.537 1.615,-3.283 c 0.091,-0.18 0.208,-0.299 0.352,-0.299 0.144,0 0.261,0.119 0.352,0.299 l 1.614,3.283 3.603,0.537 c 0.267,0 0.401,0.119 0.401,0.299" />
			</g>
		</g>
</svg>